<?xml version="1.0" encoding="UTF-8"?>
<svg width="256px" height="256px" viewBox="0 0 256 256" version="1.1" xmlns="http://www.w3.org/2000/svg" xmlns:xlink="http://www.w3.org/1999/xlink">
    <!-- Generator: Sketch 63.1 (92452) - https://sketch.com -->
    <title>Ruby on Rails</title>
    <desc>Created with Sketch.</desc>
    <g id="Supported-technologies" stroke="none" stroke-width="1" fill="none" fill-rule="evenodd">
        <g id="Ruby-on-Rails">
            <circle id="Background" fill="#EEEEEE" cx="128" cy="128" r="128"></circle>
            <g id="Logo" transform="translate(51.000000, 101.000000)" fill="#CC0000" fill-rule="nonzero">
                <path d="M65.808056,45.2406177 C65.808056,45.2406177 72.5864021,44.6596165 72.5864021,35.905867 C72.5864021,27.1521173 64.3749201,26.3387158 64.3749201,26.3387158 L49.5787592,26.3387158 L49.5787592,53.9556338 L57.0155729,53.9556338 L57.0155729,47.2934883 L63.4453184,53.9556338 L74.4456055,53.9556338 L65.808056,45.2406177 Z M62.9417839,39.5855405 L57.0155729,39.5855405 L57.0155729,33.2719955 L62.9805176,33.2719955 C62.9805176,33.2719955 64.646054,33.89173 64.646054,36.4094012 C64.646054,38.9270727 62.9417839,39.5855405 62.9417839,39.5855405 Z M90.9460362,26.5323828 L83.3930223,26.5323828 C78.0090787,26.5323828 76.1886086,31.4127918 76.1886086,33.7367964 L76.1886086,53.9556338 L83.7416228,53.9556338 L83.7416228,49.1139584 L90.8298362,49.1139584 L90.8298362,53.9556338 L98.1504498,53.9556338 L98.1504498,33.7367964 C98.1504498,27.8493186 92.8052399,26.5323828 90.9460362,26.5323828 Z M90.8298362,41.2898103 L83.7028895,41.2898103 L83.7028895,34.5889311 C83.7028895,34.5889311 83.7028895,33.0783283 86.0656271,33.0783283 L88.6607652,33.0783283 C90.7523692,33.0783283 90.7911026,34.5889311 90.7911026,34.5889311 L90.7911026,41.2898103 L90.8298362,41.2898103 Z M101.597723,26.5323828 L109.460604,26.5323828 L109.460604,53.9556338 L101.597723,53.9556338 L101.597723,26.5323828 Z M120.499625,46.8674208 L120.499625,26.5323828 L112.675477,26.5323828 L112.675477,46.8674208 L112.675477,53.9556338 L120.499625,53.9556338 L131.073844,53.9556338 L131.073844,46.8674208 L120.499625,46.8674208 Z M133.668983,46.9448874 L133.668983,53.9556338 L146.334806,53.9556338 C148.929944,53.9556338 153.384286,52.0576971 153.53922,46.7512205 L153.53922,44.0398821 C153.53922,39.5080735 149.820813,36.8354687 146.334806,36.8354687 L140.021261,36.8354687 L140.021261,33.5818628 L152.532151,33.5818628 L152.532151,26.5323828 L140.524795,26.5323828 C137.426123,26.5323828 133.281648,29.0887876 133.281648,33.8529964 L133.281648,36.2932009 C133.281648,41.05741 137.387389,43.4976145 140.524795,43.4976145 C149.239812,43.5363479 138.433191,43.4976145 146.48974,43.4976145 L146.48974,46.9061541 L133.668983,46.9448874 Z" id="Shape"></path>
                <path d="M2.71133839,53.9169005 L33.3107289,53.9169005 C33.3107289,53.9169005 27.4619846,27.2295841 46.8286875,16.422964 C51.0506284,14.3700935 64.4911204,6.70087916 86.4916946,22.9689095 C87.188896,22.3879084 87.8473638,21.9231076 87.8473638,21.9231076 C87.8473638,21.9231076 67.705993,1.82047006 45.279351,4.06700758 C34.00793,5.07407612 20.1413709,15.3384286 12.0073557,28.8951206 C3.87334054,42.4518126 2.71133839,53.9169005 2.71133839,53.9169005 Z M66.4665241,6.23607831 L66.6214577,3.64094012 C66.2728568,3.44727308 65.3045218,2.98247223 62.8643173,2.28527093 L62.7093837,4.8416757 C63.9875859,5.26774316 65.2270549,5.73254404 66.4665241,6.23607831 Z M62.7868503,14.4475603 L62.6319167,16.8877648 C63.9101193,16.9264982 65.1883215,17.0814319 66.4665241,17.3525657 L66.6214577,14.9510945 C65.3045218,14.6799607 64.0263195,14.5250271 62.7868503,14.4475603 Z M48.4554903,2.36273774 L48.8428245,2.36273774 L48.0681564,-4.26801983e-15 C46.8674208,-4.26801983e-15 45.6279519,0.0774668112 44.3497493,0.232400433 L45.085684,2.51767136 C46.208953,2.40147114 47.3322216,2.36273774 48.4554903,2.36273774 Z M50.3146937,16.616631 L51.2055621,19.289236 C52.328831,18.7469683 53.4520997,18.2821674 54.5753683,17.9335668 L53.7232336,15.377162 C52.4062977,15.7644961 51.283029,16.1905635 50.3146937,16.616631 Z M32.7297277,6.42974532 L30.9867246,3.75714035 C30.0183893,4.26067462 29.0113208,4.80294228 27.9655188,5.42267677 L29.7472555,8.13401516 C30.754324,7.51428069 31.7226591,6.93327959 32.7297277,6.42974532 Z M40.6700758,23.8597778 L42.5292792,26.648583 C43.1877473,25.6802479 43.9624154,24.7893796 44.8145501,23.8985112 L43.071547,21.2646397 C42.1806787,22.0780412 41.3672772,22.9689095 40.6700758,23.8597778 Z M35.053732,36.3319345 L38.1911379,38.8108724 C38.3460716,37.3002696 38.6172055,35.7896667 39.0045394,34.2790639 L36.2157342,32.0712599 C35.7122001,33.5043958 35.3635992,34.9375317 35.053732,36.3319345 Z M18.0885004,17.9335668 L15.3384286,15.5320956 C14.3313601,16.5004308 13.3630249,17.4687659 12.4721566,18.4371011 L15.4546288,20.9935058 C16.2680304,19.9477039 17.1588987,18.9019019 18.0885004,17.9335668 Z M6.39101193,35.2473992 L1.93667028,33.6205961 C1.20073557,35.2861325 0.387334054,37.2228026 0,38.2686046 L4.45434165,39.8954077 C4.95787592,38.5784718 5.77127743,36.6805351 6.39101193,35.2473992 Z M34.4727308,46.1702194 C34.5501978,48.22309 34.7438647,49.8886265 34.9375317,51.0506284 L39.5855405,52.7161649 C39.2369399,51.2055621 38.8883391,49.5012923 38.6559388,47.6808222 L34.4727308,46.1702194 Z" id="Shape"></path>
            </g>
        </g>
    </g>
</svg>