<?xml version="1.0" encoding="UTF-8"?>
<svg width="256px" height="256px" viewBox="0 0 256 256" version="1.1" xmlns="http://www.w3.org/2000/svg" xmlns:xlink="http://www.w3.org/1999/xlink">
    <!-- Generator: Sketch 63.1 (92452) - https://sketch.com -->
    <title>Node.js</title>
    <desc>Created with Sketch.</desc>
    <defs>
        <linearGradient x1="63.7169061%" y1="17.4868311%" x2="33.2748707%" y2="89.7551419%" id="linearGradient-1">
            <stop stop-color="#41873F" offset="0%"></stop>
            <stop stop-color="#418B3D" offset="32.88%"></stop>
            <stop stop-color="#419637" offset="63.52%"></stop>
            <stop stop-color="#3FA92D" offset="93.19%"></stop>
            <stop stop-color="#3FAE2A" offset="100%"></stop>
        </linearGradient>
        <linearGradient x1="68.1884411%" y1="17.4868311%" x2="27.8226935%" y2="89.7551419%" id="linearGradient-2">
            <stop stop-color="#41873F" offset="0%"></stop>
            <stop stop-color="#418B3D" offset="32.88%"></stop>
            <stop stop-color="#419637" offset="63.52%"></stop>
            <stop stop-color="#3FA92D" offset="93.19%"></stop>
            <stop stop-color="#3FAE2A" offset="100%"></stop>
        </linearGradient>
        <path d="M17.2601002,0.253136292 C16.7088794,-0.0569253866 16.0543047,-0.0569253866 15.503084,0.253136292 L0.999087633,8.62480164 C0.44786687,8.93486333 0.137805191,9.52053537 0.137805191,10.1406587 L0.137805191,26.9184407 C0.137805191,27.5385641 0.482318168,28.1242361 0.999087633,28.4342978 L15.503084,36.8059633 C16.0543047,37.1160248 16.7088794,37.1160248 17.2601002,36.8059633 L31.7640964,28.4342978 C32.3153172,28.1242361 32.625379,27.5385641 32.625379,26.9184407 L32.625379,10.1406587 C32.625379,9.52053537 32.2808661,8.93486333 31.7640964,8.62480164 L17.2601002,0.253136292 L17.2601002,0.253136292 Z" id="path-3"></path>
        <linearGradient x1="43.2765472%" y1="55.168777%" x2="159.245277%" y2="-18.3061379%" id="linearGradient-5">
            <stop stop-color="#41873F" offset="13.76%"></stop>
            <stop stop-color="#54A044" offset="40.32%"></stop>
            <stop stop-color="#66B848" offset="71.36%"></stop>
            <stop stop-color="#6CC04A" offset="90.81%"></stop>
        </linearGradient>
        <path d="M17.2601002,0.253136292 C16.7088794,-0.0569253866 16.0543047,-0.0569253866 15.503084,0.253136292 L0.999087633,8.62480164 C0.44786687,8.93486333 0.137805191,9.52053537 0.137805191,10.1406587 L0.137805191,26.9184407 C0.137805191,27.5385641 0.482318168,28.1242361 0.999087633,28.4342978 L15.503084,36.8059633 C16.0543047,37.1160248 16.7088794,37.1160248 17.2601002,36.8059633 L31.7640964,28.4342978 C32.3153172,28.1242361 32.625379,27.5385641 32.625379,26.9184407 L32.625379,10.1406587 C32.625379,9.52053537 32.2808661,8.93486333 31.7640964,8.62480164 L17.2601002,0.253136292 L17.2601002,0.253136292 Z" id="path-6"></path>
        <linearGradient x1="-4413.77%" y1="13.43%" x2="5327.93%" y2="13.43%" id="linearGradient-8">
            <stop stop-color="#6CC04A" offset="9.191646%"></stop>
            <stop stop-color="#66B848" offset="28.64%"></stop>
            <stop stop-color="#54A044" offset="59.68%"></stop>
            <stop stop-color="#41873F" offset="86.24%"></stop>
        </linearGradient>
        <linearGradient x1="-4.38880435%" y1="49.9972065%" x2="101.499239%" y2="49.9972065%" id="linearGradient-9">
            <stop stop-color="#6CC04A" offset="9.191646%"></stop>
            <stop stop-color="#66B848" offset="28.64%"></stop>
            <stop stop-color="#54A044" offset="59.68%"></stop>
            <stop stop-color="#41873F" offset="86.24%"></stop>
        </linearGradient>
        <linearGradient x1="-9713.77%" y1="36.21%" x2="27.93%" y2="36.21%" id="linearGradient-10">
            <stop stop-color="#6CC04A" offset="9.191646%"></stop>
            <stop stop-color="#66B848" offset="28.64%"></stop>
            <stop stop-color="#54A044" offset="59.68%"></stop>
            <stop stop-color="#41873F" offset="86.24%"></stop>
        </linearGradient>
        <linearGradient x1="-103.860714%" y1="50.2754209%" x2="100.796849%" y2="50.2754209%" id="linearGradient-11">
            <stop stop-color="#6CC04A" offset="9.191646%"></stop>
            <stop stop-color="#66B848" offset="28.64%"></stop>
            <stop stop-color="#54A044" offset="59.68%"></stop>
            <stop stop-color="#41873F" offset="86.24%"></stop>
        </linearGradient>
        <linearGradient x1="130.613025%" y1="-211.06936%" x2="4.39327731%" y2="201.605387%" id="linearGradient-12">
            <stop stop-color="#41873F" offset="0%"></stop>
            <stop stop-color="#418B3D" offset="32.88%"></stop>
            <stop stop-color="#419637" offset="63.52%"></stop>
            <stop stop-color="#3FA92D" offset="93.19%"></stop>
            <stop stop-color="#3FAE2A" offset="100%"></stop>
        </linearGradient>
    </defs>
    <g id="Supported-technologies" stroke="none" stroke-width="1" fill="none" fill-rule="evenodd">
        <g id="Node.js">
            <circle id="Background" fill="#EEEEEE" cx="128" cy="128" r="128"></circle>
            <g id="Logo" transform="translate(52.000000, 81.000000)">
                <path d="M75.4483418,93.3285656 C74.9315725,93.3285656 74.4492542,93.1907603 74.0013874,92.9496013 L69.4193649,90.2279488 C68.7303388,89.8489844 69.074852,89.7111791 69.2815596,89.6422766 C70.2117447,89.3322151 70.3840012,89.2633122 71.3486377,88.7120915 C71.4519913,88.6431889 71.5897967,88.6776404 71.6931506,88.7465429 L75.2071829,90.8480721 C75.3449882,90.9169746 75.5172447,90.9169746 75.6205986,90.8480721 L89.3666662,82.8898224 C89.5044715,82.8209196 89.5733741,82.6831146 89.5733741,82.5108581 L89.5733741,66.6288099 C89.5733741,66.4565531 89.5044715,66.3187481 89.3666662,66.2498456 L75.6205986,58.326047 C75.4827933,58.2571445 75.3105368,58.2571445 75.2071829,58.326047 L61.461115,66.2498456 C61.3233099,66.3187481 61.2544074,66.4910046 61.2544074,66.6288099 L61.2544074,82.5108581 C61.2544074,82.6486631 61.3233099,82.8209196 61.461115,82.8898224 L65.2163065,85.0602541 C67.2489332,86.0937929 68.5236312,84.8879977 68.5236312,83.6822022 L68.5236312,68.0068616 C68.5236312,67.800154 68.6958877,67.5934461 68.9370467,67.5934461 L70.694063,67.5934461 C70.9007708,67.5934461 71.1074784,67.7657026 71.1074784,68.0068616 L71.1074784,83.6822022 C71.1074784,86.4038547 69.6260728,87.9886142 67.0422253,87.9886142 C66.2498456,87.9886142 65.6297223,87.9886142 63.872706,87.1273319 L60.2553198,85.0602541 C59.3595861,84.5434845 58.8083653,83.5788483 58.8083653,82.5453092 L58.8083653,66.663261 C58.8083653,65.6297223 59.3595861,64.6650858 60.2553198,64.1483164 L74.0013874,56.1900664 C74.8626699,55.7077485 76.034014,55.7077485 76.8952966,56.1900664 L90.6413642,64.1483164 C91.5370979,64.6650858 92.0883187,65.6297223 92.0883187,66.663261 L92.0883187,82.5453092 C92.0883187,83.5788483 91.5370979,84.5434845 90.6413642,85.0602541 L76.8952966,93.0185038 C76.4474295,93.2252117 75.9306601,93.3285656 75.4483418,93.3285656 Z M79.6858517,82.4075042 C73.6568744,82.4075042 72.4166278,79.6514002 72.4166278,77.3087121 C72.4166278,77.1020042 72.5888843,76.8952966 72.8300433,76.8952966 L74.621511,76.8952966 C74.8282185,76.8952966 75.000475,77.0331017 75.000475,77.2398095 C75.2760854,79.0657283 76.0684655,79.961462 79.7203028,79.961462 C82.614212,79.961462 83.8544586,79.3068873 83.8544586,77.7565789 C83.8544586,76.8608452 83.5099457,76.2062705 78.9968255,75.7584036 C75.2416343,75.3794393 72.8989461,74.5526081 72.8989461,71.5553452 C72.8989461,68.7647902 75.2416343,67.1111279 79.1690823,67.1111279 C83.5788483,67.1111279 85.74928,68.6269852 86.0248904,71.9343096 C86.0248904,72.0376635 85.990439,72.1410174 85.9215364,72.2443714 C85.8526339,72.3132739 85.74928,72.3821764 85.645926,72.3821764 L83.8544586,72.3821764 C83.6822022,72.3821764 83.5099457,72.2443714 83.4754943,72.0721149 C83.0620789,70.1772936 81.9940884,69.55717 79.1690823,69.55717 C75.9995626,69.55717 75.6205986,70.6596115 75.6205986,71.4864427 C75.6205986,72.4855304 76.0684655,72.7955922 80.3404264,73.3468129 C84.5779359,73.8980337 86.5761112,74.6904135 86.5761112,77.653225 C86.5416597,80.6849393 84.0611665,82.4075042 79.6858517,82.4075042 Z" id="Shape" fill="#539E43" fill-rule="nonzero"></path>
                <path d="M32.7976354,31.2128756 C32.7976354,30.5927523 32.4531225,30.0070804 31.9019017,29.6970186 L17.2945514,21.290902 C17.0533924,21.1530968 16.777782,21.0841942 16.5021716,21.0497429 L16.3643664,21.0497429 C16.088756,21.0497429 15.8131456,21.1530968 15.5719866,21.290902 L0.964636335,29.6970186 C0.413415573,30.0070804 0.0689025956,30.5927523 0.0689025956,31.2128756 L0.103353893,53.8129271 C0.103353893,54.1229886 0.275610382,54.4330504 0.551220763,54.5708555 C0.826831146,54.7431119 1.17134412,54.7431119 1.41250321,54.5708555 L10.0942302,49.6098687 C10.645451,49.2998069 10.989964,48.714135 10.989964,48.0940117 L10.989964,37.5174632 C10.989964,36.8973399 11.3344769,36.3116677 11.8856977,36.0016062 L15.5719866,33.8656256 C15.847597,33.6933691 16.1576586,33.6244666 16.4677203,33.6244666 C16.777782,33.6244666 17.0878437,33.6933691 17.3290027,33.8656256 L21.0152916,36.0016062 C21.5665124,36.3116677 21.9110253,36.8973399 21.9110253,37.5174632 L21.9110253,48.0940117 C21.9110253,48.714135 22.2555383,49.2998069 22.8067591,49.6098687 L31.488486,54.5708555 C31.7640964,54.7431119 32.1086096,54.7431119 32.38422,54.5708555 C32.6598301,54.4330504 32.8320868,54.1229886 32.8320868,53.8129271 L32.7976354,31.2128756 L32.7976354,31.2128756 Z" id="Path" fill="#333333" fill-rule="nonzero"></path>
                <path d="M103.00938,0.103353893 C102.73377,-0.0344512978 102.389257,-0.0344512978 102.148098,0.103353893 C101.872487,0.275610382 101.700231,0.551220763 101.700231,0.861282443 L101.700231,23.254626 C101.700231,23.4613337 101.596877,23.6680415 101.390169,23.8058467 C101.183461,23.9092006 100.976753,23.9092006 100.770046,23.8058467 L97.1182083,21.7043176 C96.5669875,21.3942559 95.9124128,21.3942559 95.361192,21.7043176 L80.7538418,30.1448854 C80.202621,30.4549472 79.8581081,31.0406191 79.8581081,31.6607425 L79.8581081,48.5074272 C79.8581081,49.1275505 80.202621,49.7132227 80.7538418,50.0232842 L95.361192,58.4638521 C95.9124128,58.7739139 96.5669875,58.7739139 97.1182083,58.4638521 L111.725558,50.0232842 C112.276779,49.7132227 112.621292,49.1275505 112.621292,48.5074272 L112.621292,6.51129526 C112.621292,5.8567206 112.276779,5.27104856 111.725558,4.96098687 L103.00938,0.103353893 L103.00938,0.103353893 Z M101.66578,42.9607682 C101.66578,43.1330247 101.596877,43.27083 101.459072,43.3397325 L96.4636335,46.2336415 C96.3258285,46.302544 96.153572,46.302544 96.0157667,46.2336415 L91.0203285,43.3397325 C90.8825235,43.27083 90.8136207,43.0985736 90.8136207,42.9607682 L90.8136207,37.1729503 C90.8136207,37.0006938 90.8825235,36.8628885 91.0203285,36.793986 L96.0157667,33.900077 C96.153572,33.8311745 96.3258285,33.8311745 96.4636335,33.900077 L101.459072,36.793986 C101.596877,36.8628885 101.66578,37.0351449 101.66578,37.1729503 L101.66578,42.9607682 L101.66578,42.9607682 Z" id="Shape" fill="#333333" fill-rule="nonzero"></path>
                <g id="Group" transform="translate(119.844088, 21.015292)" fill-rule="nonzero">
                    <path d="M31.7760737,16.0198534 C32.3272945,15.7097918 32.637356,15.1241197 32.637356,14.5039963 L32.637356,10.4042919 C32.637356,9.78416855 32.2928431,9.19849648 31.7760737,8.88843482 L17.2720774,0.482318168 C16.7208566,0.172256489 16.066282,0.172256489 15.5150612,0.482318168 L0.90771095,8.92288611 C0.356490185,9.2329478 0.0119772099,9.81861984 0.0119772099,10.4387432 L0.0119772099,27.2854278 C0.0119772099,27.9055511 0.356490185,28.4912232 0.90771095,28.8012849 L15.4117073,37.0695964 C15.962928,37.3796582 16.6175027,37.3796582 17.1342722,37.0695964 L25.9193531,32.1775121 C26.1949635,32.0397068 26.36722,31.7296453 26.36722,31.4195835 C26.36722,31.109522 26.1949635,30.7994602 25.9193531,30.6616548 L11.2431003,22.221087 C10.9674899,22.0488305 10.7952334,21.7732201 10.7952334,21.4631585 L10.7952334,16.1921099 C10.7952334,15.8820483 10.9674899,15.5719866 11.2431003,15.4341814 L15.8251229,12.8158827 C16.1007332,12.6436263 16.4452462,12.6436263 16.7208566,12.8158827 L21.3028792,15.4341814 C21.5784896,15.6064379 21.7507461,15.8820483 21.7507461,16.1921099 L21.7507461,20.3262657 C21.7507461,20.6363273 21.9230026,20.946389 22.1986129,21.0841942 C22.4742233,21.2564507 22.8187363,21.2564507 23.0943467,21.0841942 L31.7760737,16.0198534 L31.7760737,16.0198534 Z" id="Path" fill="#333333"></path>
                    <path d="M16.1696358,15.2274736 C16.2729897,15.158571 16.4107949,15.158571 16.5141488,15.2274736 L19.3047039,16.8466846 C19.4080578,16.9155872 19.4769604,17.0189411 19.4769604,17.1567462 L19.4769604,20.3951682 C19.4769604,20.5329734 19.4080578,20.6363273 19.3047039,20.7052299 L16.5141488,22.3244409 C16.4107949,22.3933435 16.2729897,22.3933435 16.1696358,22.3244409 L13.3790807,20.7052299 C13.2757268,20.6363273 13.2068242,20.5329734 13.2068242,20.3951682 L13.2068242,17.1567462 C13.2068242,17.0189411 13.2757268,16.9155872 13.3790807,16.8466846 L16.1696358,15.2274736 L16.1696358,15.2274736 Z" id="Path" fill="#539E43"></path>
                </g>
                <g id="Group" transform="translate(39.963505, 21.313376)">
                    <g id="path-2-link" fill="url(#linearGradient-2)" fill-rule="nonzero">
                        <path d="M17.2601002,0.253136292 C16.7088794,-0.0569253866 16.0543047,-0.0569253866 15.503084,0.253136292 L0.999087633,8.62480164 C0.44786687,8.93486333 0.137805191,9.52053537 0.137805191,10.1406587 L0.137805191,26.9184407 C0.137805191,27.5385641 0.482318168,28.1242361 0.999087633,28.4342978 L15.503084,36.8059633 C16.0543047,37.1160248 16.7088794,37.1160248 17.2601002,36.8059633 L31.7640964,28.4342978 C32.3153172,28.1242361 32.625379,27.5385641 32.625379,26.9184407 L32.625379,10.1406587 C32.625379,9.52053537 32.2808661,8.93486333 31.7640964,8.62480164 L17.2601002,0.253136292 L17.2601002,0.253136292 Z" id="path-2"></path>
                    </g>
                    <g id="Clipped">
                        <mask id="mask-4" fill="white">
                            <use xlink:href="#path-3"></use>
                        </mask>
                        <g id="path-2"></g>
                        <g id="Group" mask="url(#mask-4)">
                            <path d="M15.4686327,0.253136292 L0.930185038,8.62480164 C0.378964275,8.93486333 0,9.52053537 0,10.1406587 L0,26.9184407 C0,27.3318563 0.172256489,27.7108206 0.44786687,28.0208823 L16.777782,0.0464285074 C16.3643664,-0.0224740888 15.8820483,0.0119772099 15.4686327,0.253136292 L15.4686327,0.253136292 Z" id="Path"></path>
                            <path d="M16.8811359,36.9782198 C17.0189411,36.9437683 17.1567462,36.8748658 17.2945514,36.8059633 L31.8329992,28.4342978 C32.38422,28.1242361 32.7287329,27.5385641 32.7287329,26.9184407 L32.7287329,10.1406587 C32.7287329,9.69279186 32.522025,9.24492501 32.2119632,8.93486333 L16.8811359,36.9782198 L16.8811359,36.9782198 Z" id="Path"></path>
                            <path d="M31.7985478,8.62480164 L17.2256489,0.253136292 C17.0878437,0.184233697 16.9155872,0.115331102 16.777782,0.0808798049 L0.44786687,28.0553335 C0.58567206,28.22759 0.757928551,28.3653952 0.930185038,28.4687491 L15.503084,36.8404144 C15.9164995,37.0815737 16.3988177,37.1504762 16.8466846,37.0126709 L32.1775121,8.96931462 C32.0741582,8.83150942 31.9363528,8.72815552 31.7985478,8.62480164 L31.7985478,8.62480164 Z" id="Path" fill="url(#linearGradient-5)" fill-rule="nonzero"></path>
                        </g>
                    </g>
                    <g id="Clipped">
                        <mask id="mask-7" fill="white">
                            <use xlink:href="#path-6"></use>
                        </mask>
                        <g id="path-2"></g>
                        <g id="Group" mask="url(#mask-7)">
                            <g transform="translate(0.000000, -3.054188)" id="Path">
                                <path d="M32.7287329,29.972629 L32.7287329,13.194847 C32.7287329,12.5747237 32.3497686,11.9890516 31.7985478,11.6789899 L17.2256489,3.30732458 C17.0533924,3.20397068 16.8811359,3.13506809 16.6744281,3.1006168 L32.625379,30.3515933 C32.6942815,30.2482394 32.7287329,30.1104343 32.7287329,29.972629 L32.7287329,29.972629 Z" fill="none"></path>
                                <path d="M0.930185038,11.6789899 C0.378964275,11.9890516 0,12.5747237 0,13.194847 L0,29.972629 C0,30.5927523 0.413415573,31.1784245 0.930185038,31.488486 L15.503084,39.8601514 C15.847597,40.0668593 16.2265612,40.1357618 16.6399768,40.0668593 L1.03353893,11.6445386 L0.930185038,11.6789899 L0.930185038,11.6789899 Z" fill="none"></path>
                                <polygon fill="url(#linearGradient-8)" fill-rule="evenodd" points="15.0207658 0.241159084 14.814058 0.344512978 15.0896684 0.344512978"></polygon>
                                <path d="M31.8329992,31.488486 C32.2464146,31.247327 32.5564764,30.8339116 32.6942815,30.3860447 L16.7088794,3.1006168 C16.2954638,3.03171419 15.847597,3.06616548 15.4686327,3.30732458 L0.999087633,11.6445386 L16.6055255,40.1013107 C16.8122333,40.0668593 17.0533924,39.9979567 17.2601002,39.8946028 L31.8329992,31.488486 L31.8329992,31.488486 Z" fill="url(#linearGradient-9)" fill-rule="evenodd"></path>
                                <polygon fill="url(#linearGradient-10)" fill-rule="evenodd" points="33.1765998 31.2128756 33.0732458 31.0406191 33.0732458 31.2817784"></polygon>
                                <path d="M31.8329992,31.488486 L17.2945514,39.8601514 C17.0878437,39.9635053 16.8811359,40.0324078 16.6399768,40.0668593 L16.9155872,40.5836286 L33.0387944,31.247327 L33.0387944,31.0406191 L32.625379,30.3515933 C32.5564764,30.8339116 32.2464146,31.247327 31.8329992,31.488486 L31.8329992,31.488486 Z" fill="url(#linearGradient-11)" fill-rule="evenodd"></path>
                                <path d="M31.8329992,31.488486 L17.2945514,39.8601514 C17.0878437,39.9635053 16.8811359,40.0324078 16.6399768,40.0668593 L16.9155872,40.5836286 L33.0387944,31.247327 L33.0387944,31.0406191 L32.625379,30.3515933 C32.5564764,30.8339116 32.2464146,31.247327 31.8329992,31.488486 L31.8329992,31.488486 Z" fill="url(#linearGradient-12)" fill-rule="evenodd"></path>
                            </g>
                        </g>
                    </g>
                </g>
            </g>
        </g>
    </g>
</svg>