<?xml version="1.0" encoding="UTF-8"?>
<svg width="256px" height="256px" viewBox="0 0 256 256" version="1.1" xmlns="http://www.w3.org/2000/svg" xmlns:xlink="http://www.w3.org/1999/xlink">
    <!-- Generator: Sketch 63.1 (92452) - https://sketch.com -->
    <title>iOS</title>
    <desc>Created with Sketch.</desc>
    <g id="Supported-technologies" stroke="none" stroke-width="1" fill="none" fill-rule="evenodd">
        <g id="iOS">
            <circle id="Background" fill="#EEEEEE" cx="128" cy="128" r="128"></circle>
            <g id="Lettering" transform="translate(64.000000, 87.000000)" fill="#000000" fill-rule="nonzero">
                <path d="M4.64230413,6.50657827 C4.64230413,7.88088514 3.80546376,8.89755075 2.36987566,8.89755075 C1.17438942,8.89755075 0.277272439,7.88088514 0.277272439,6.50657827 C0.277272439,5.1905388 1.23366143,4.11460118 2.48942429,4.11460118 C3.80546376,4.11460118 4.64230413,5.1905388 4.64230413,6.50657827 L4.64230413,6.50657827 L4.64230413,6.50657827 Z M1.33311785,78.371375 L1.33311785,23.3991002 L3.58645872,23.3991002 L3.58645872,78.371375 L1.33311785,78.371375 L1.33311785,78.371375 Z" id="Shape"></path>
                <path d="M78.5344044,39.2036292 C78.5344044,66.9188177 63.1487979,79.5166307 46.3075111,79.5166307 C29.10356,79.5166307 15.1716245,65.8890922 15.1716245,40.3498895 C15.1716245,14.1245381 29.5887867,0.0368880339 47.5190711,0.0368880339 C65.0856865,0.0358834236 78.5344044,13.8934777 78.5344044,39.2036292 L78.5344044,39.2036292 L78.5344044,39.2036292 Z M17.4551037,39.7762571 C17.4551037,60.790695 27.6398428,77.1156121 46.4139998,77.1156121 C65.3187561,77.1156121 76.1615149,60.2883899 76.1615149,39.5371598 C76.1615149,20.2938498 67.4736452,2.73225743 47.6486658,2.73225743 C27.8236864,2.73225743 17.4551037,19.2671381 17.4551037,39.7762571 L17.4551037,39.7762571 L17.4551037,39.7762571 Z" id="Shape"></path>
                <path d="M86.8043563,72.4150406 C90.5847048,74.9346032 97.1096486,77.3677693 102.721402,77.3677693 C113.37228,77.3677693 122.84475,69.9165748 122.84475,58.9492444 C122.84475,48.7715376 116.534793,43.4611676 105.821629,38.8992323 C96.2336284,34.8164961 87.6130676,30.3851601 87.6130676,19.5052307 C87.6130676,8.16820368 96.5450576,0.150408996 108.684768,0.150408996 C115.212726,0.150408996 120.137326,1.98281816 122.427837,3.58617617 L121.516655,5.56324921 C119.569721,4.18994695 114.308577,2.43991584 108.583303,2.43991584 C95.7534247,2.43991584 90.1647777,12.1344051 90.1647777,19.2711565 C90.1647777,29.1283927 97.8058435,32.424519 107.655043,37.1200675 C119.1076,42.7318205 125.176451,47.6785216 125.176451,58.44493 C125.176451,70.0120128 116.931614,79.4021051 102.272341,79.4021051 C96.2014809,79.4021051 89.2164256,77.3406448 85.7806584,74.7065567 L86.8043563,72.4150406 L86.8043563,72.4150406 Z" id="Path"></path>
            </g>
        </g>
    </g>
</svg>