<?xml version="1.0" encoding="UTF-8"?>
<svg width="256px" height="256px" viewBox="0 0 256 256" version="1.1" xmlns="http://www.w3.org/2000/svg" xmlns:xlink="http://www.w3.org/1999/xlink">
    <!-- Generator: Sketch 63.1 (92452) - https://sketch.com -->
    <title>Javascript</title>
    <desc>Created with Sketch.</desc>
    <g id="Supported-technologies" stroke="none" stroke-width="1" fill="none" fill-rule="evenodd">
        <g id="Javascript">
            <circle id="Background" fill="#F7DF1E" cx="128" cy="128" r="128"></circle>
            <g id="javascript-js-seeklogo.com" transform="translate(64.000000, 83.000000)" fill="#000000" fill-rule="nonzero">
                <path d="M0.234682402,73.8196431 L15.0022713,64.88276 C17.8511574,69.9339353 20.4427524,74.2077243 26.6590888,74.2077243 C32.6178273,74.2077243 36.3745833,71.8767892 36.3745833,62.8103421 L36.3745833,1.15237281 L54.5087038,1.15237281 L54.5087038,63.0667141 C54.5087038,81.8489625 43.4990961,90.3980713 27.4364752,90.3980713 C12.9298529,90.3980713 4.50908358,82.8848653 0.234682402,73.8181115" id="Path"></path>
                <path d="M64.3586633,71.8764832 L79.1241083,63.3273743 C83.0110417,69.6751128 88.0628292,74.337901 97.0000184,74.337901 C104.513837,74.337901 109.30527,70.581145 109.30527,65.3997929 C109.30527,59.1822312 104.383354,56.9799419 96.0930673,53.3542822 L91.5607627,51.4098966 C78.4772054,45.8410763 69.7982258,38.8464349 69.7982258,24.0794583 C69.7982258,10.478562 80.1606239,0.115551081 96.3528087,0.115551081 C107.881287,0.115551081 116.171267,4.13143639 122.129086,14.6237052 L108.009932,23.6904591 C104.900999,18.1210259 101.534162,15.9193494 96.3531155,15.9193494 C91.0421988,15.9193494 87.674136,19.2871055 87.674136,23.6904591 C87.674136,29.1309397 91.0421988,31.333535 98.8133084,34.7015978 L103.346532,36.6444517 C118.761024,43.2510127 127.440003,49.9859134 127.440003,65.1406636 C127.440003,81.4627198 114.616494,90.399603 97.3890184,90.399603 C80.54993,90.399603 69.668968,82.369058 64.3586633,71.8764832" id="Path"></path>
            </g>
        </g>
    </g>
</svg>