<?xml version="1.0" encoding="UTF-8"?>
<svg width="256px" height="256px" viewBox="0 0 256 256" version="1.1" xmlns="http://www.w3.org/2000/svg" xmlns:xlink="http://www.w3.org/1999/xlink">
    <!-- Generator: Sketch 63.1 (92452) - https://sketch.com -->
    <title>Java</title>
    <desc>Created with Sketch.</desc>
    <defs>
        <polygon id="path-1" points="0.0188912899 0.11334774 10.4346295 0.11334774 10.4346295 41.3412904 0.0188912899 41.3412904"></polygon>
    </defs>
    <g id="Supported-technologies" stroke="none" stroke-width="1" fill="none" fill-rule="evenodd">
        <g id="Java">
            <circle id="Background" fill="#EEEEEE" cx="128" cy="128" r="128"></circle>
            <g id="java-seeklogo.com" transform="translate(87.000000, 51.000000)">
                <path d="M51.5617336,0.0622901992 C53.9609274,2.79386861 54.7528298,6.69977044 54.0630425,10.2227407 C53.3227081,14.1797001 51.1272339,17.6771416 48.5490834,20.6895365 C46.481253,23.1147697 44.1068221,25.2591864 41.6307867,27.2504304 C38.7460356,29.5735485 35.9123422,32.075368 34.0997995,35.3430506 C32.5680733,37.9980427 32.2106705,41.2657253 33.2573501,44.1504763 C34.9677777,49.1030577 38.9502658,52.7792006 41.1202113,57.4509655 C38.7205069,55.3320776 36.37186,53.1366034 34.1763858,50.8134853 C31.8787965,48.3627234 29.708851,45.7587888 28.2792399,42.6953364 C27.3091466,40.5509197 26.8751575,38.0491002 27.6154918,35.7770397 C28.3558262,33.4539216 30.0151962,31.5903214 31.6745663,29.854365 C36.2952737,25.2336576 41.9884447,21.8383312 46.5067818,17.1410374 C49.0088565,14.5626317 51.0764316,11.4736505 51.7909819,7.92515141 C52.3783989,5.32121685 52.0975824,2.64069599 51.5617336,0.0622901992" id="Fill-1" fill="#D63033"></path>
                <path d="M51.5617336,0.0622901992 C53.9609274,2.79386861 54.7528298,6.69977044 54.0630425,10.2227407 C53.3227081,14.1797001 51.1272339,17.6771416 48.5490834,20.6895365 C46.481253,23.1147697 44.1068221,25.2591864 41.6307867,27.2504304 C38.7460356,29.5735485 35.9123422,32.075368 34.0997995,35.3430506 C32.5680733,37.9980427 32.2106705,41.2657253 33.2573501,44.1504763 C34.9677777,49.1030577 38.9502658,52.7792006 41.1202113,57.4509655 C38.7205069,55.3320776 36.37186,53.1366034 34.1763858,50.8134853 C31.8787965,48.3627234 29.708851,45.7587888 28.2792399,42.6953364 C27.3091466,40.5509197 26.8751575,38.0491002 27.6154918,35.7770397 C28.3558262,33.4539216 30.0151962,31.5903214 31.6745663,29.854365 C36.2952737,25.2336576 41.9884447,21.8383312 46.5067818,17.1410374 C49.0088565,14.5626317 51.0764316,11.4736505 51.7909819,7.92515141 C52.3783989,5.32121685 52.0975824,2.64069599 51.5617336,0.0622901992 Z" id="Stroke-2" stroke="#D63033" stroke-width="0.5"></path>
                <path d="M47.7832203,29.1395594 C52.7358017,25.4889453 58.5305772,23.1658272 64.4021944,21.4809284 C59.7562135,24.4422657 54.9057472,27.1483154 50.897475,30.9521021 C49.4425903,32.3561845 48.0637815,33.964497 47.4255622,35.9302123 C46.9405156,37.3853522 47.145001,38.9936647 47.732418,40.3722183 C48.8043711,42.8229802 50.6166585,44.8142243 51.9954674,47.0607561 C53.1695355,48.9754138 53.374021,51.4261758 52.480514,53.4940062 C51.1272339,56.5319298 48.4722418,58.7529328 45.7153899,60.514418 C45.3579871,60.7186481 45.0518972,61.1015797 44.6173975,61.1526372 C46.4559795,59.4932672 47.8853354,57.1446203 47.8340225,54.6172721 C47.7832203,52.7281431 46.7365407,51.068773 45.5109044,49.7157482 C42.9835562,46.7033533 40.8649236,42.8740378 41.2989127,38.8149633 C41.733157,34.7558889 44.6429263,31.4882063 47.7832203,29.1395594" id="Fill-4" fill="#D63033"></path>
                <path d="M47.7832203,29.1395594 C52.7358017,25.4889453 58.5305772,23.1658272 64.4021944,21.4809284 C59.7562135,24.4422657 54.9057472,27.1483154 50.897475,30.9521021 C49.4425903,32.3561845 48.0637815,33.964497 47.4255622,35.9302123 C46.9405156,37.3853522 47.145001,38.9936647 47.732418,40.3722183 C48.8043711,42.8229802 50.6166585,44.8142243 51.9954674,47.0607561 C53.1695355,48.9754138 53.374021,51.4261758 52.480514,53.4940062 C51.1272339,56.5319298 48.4722418,58.7529328 45.7153899,60.514418 C45.3579871,60.7186481 45.0518972,61.1015797 44.6173975,61.1526372 C46.4559795,59.4932672 47.8853354,57.1446203 47.8340225,54.6172721 C47.7832203,52.7281431 46.7365407,51.068773 45.5109044,49.7157482 C42.9835562,46.7033533 40.8649236,42.8740378 41.2989127,38.8149633 C41.733157,34.7558889 44.6429263,31.4882063 47.7832203,29.1395594 Z" id="Stroke-5" stroke="#D63033" stroke-width="0.5"></path>
                <path d="M65.3472694,58.6508177 C66.4192225,57.3488505 68.1293948,57.0169765 69.6871604,56.8127463 C72.3929547,56.4553435 75.2774505,57.1446203 77.3197521,59.0082205 C79.0051615,60.514418 79.9494707,62.8630648 79.5918126,65.1351254 C79.2088811,67.7645887 77.4473959,69.9600629 75.4564071,71.619433 C71.8571058,74.504184 67.4148445,76.1890829 62.9728385,77.312604 C63.2281262,77.031277 63.5086874,76.7759893 63.8408167,76.5720144 C67.2103591,74.7594717 70.554628,72.6405838 73.031174,69.6792465 C74.5376267,67.841175 75.7116949,65.4414706 75.2266482,63.0162374 C74.7160728,60.2080727 71.9847497,58.1657711 69.2018585,58.0125985 C67.8741071,57.8849546 66.623708,58.39553 65.3472694,58.6508177" id="Fill-6" fill="#1F69A5"></path>
                <path d="M65.3472694,58.6508177 C66.4192225,57.3488505 68.1293948,57.0169765 69.6871604,56.8127463 C72.3929547,56.4553435 75.2774505,57.1446203 77.3197521,59.0082205 C79.0051615,60.514418 79.9494707,62.8630648 79.5918126,65.1351254 C79.2088811,67.7645887 77.4473959,69.9600629 75.4564071,71.619433 C71.8571058,74.504184 67.4148445,76.1890829 62.9728385,77.312604 C63.2281262,77.031277 63.5086874,76.7759893 63.8408167,76.5720144 C67.2103591,74.7594717 70.554628,72.6405838 73.031174,69.6792465 C74.5376267,67.841175 75.7116949,65.4414706 75.2266482,63.0162374 C74.7160728,60.2080727 71.9847497,58.1657711 69.2018585,58.0125985 C67.8741071,57.8849546 66.623708,58.39553 65.3472694,58.6508177 Z" id="Stroke-7" stroke="#1F69A5" stroke-width="0.5"></path>
                <path d="M14.0341861,60.9739358 C18.7314798,58.957163 23.8369786,57.6551957 28.9685167,57.731782 C25.9816506,58.5997602 22.9181981,59.3400945 20.1100334,60.6675906 C19.4462854,61.0249934 18.6804223,61.3568674 18.2974907,62.0461442 C18.0930053,62.5822484 18.6548935,62.9396511 19.0633538,63.1183525 C20.7993102,63.8331581 22.713968,63.9352732 24.5775682,64.1139746 C31.1129334,64.5479637 37.6738273,64.292676 44.1836637,63.8842156 C50.6166585,63.4757553 56.998851,62.6077771 63.3557701,61.5866263 C61.9516877,62.2503743 60.5220766,62.9141224 59.2203646,63.7565718 C58.556106,64.2160896 57.7394406,64.3437335 56.998851,64.5224349 C49.1873026,66.2583913 41.1712688,66.7944954 33.2062925,66.9221393 C30.1173113,66.9476681 27.0538589,66.8966105 23.9904065,66.6923803 C20.5695513,66.4626214 17.1231673,66.2073337 13.7788984,65.3138268 C12.8088051,65.0330103 11.7876543,64.726665 11.0217912,64.0373883 C10.6388597,63.731043 10.6388597,63.1183525 10.9707337,62.7609497 C11.8131831,61.8929716 12.9875065,61.4845112 14.0341861,60.9739358" id="Fill-8" fill="#1F69A5"></path>
                <path d="M14.0341861,60.9739358 C18.7314798,58.957163 23.8369786,57.6551957 28.9685167,57.731782 C25.9816506,58.5997602 22.9181981,59.3400945 20.1100334,60.6675906 C19.4462854,61.0249934 18.6804223,61.3568674 18.2974907,62.0461442 C18.0930053,62.5822484 18.6548935,62.9396511 19.0633538,63.1183525 C20.7993102,63.8331581 22.713968,63.9352732 24.5775682,64.1139746 C31.1129334,64.5479637 37.6738273,64.292676 44.1836637,63.8842156 C50.6166585,63.4757553 56.998851,62.6077771 63.3557701,61.5866263 C61.9516877,62.2503743 60.5220766,62.9141224 59.2203646,63.7565718 C58.556106,64.2160896 57.7394406,64.3437335 56.998851,64.5224349 C49.1873026,66.2583913 41.1712688,66.7944954 33.2062925,66.9221393 C30.1173113,66.9476681 27.0538589,66.8966105 23.9904065,66.6923803 C20.5695513,66.4626214 17.1231673,66.2073337 13.7788984,65.3138268 C12.8088051,65.0330103 11.7876543,64.726665 11.0217912,64.0373883 C10.6388597,63.731043 10.6388597,63.1183525 10.9707337,62.7609497 C11.8131831,61.8929716 12.9875065,61.4845112 14.0341861,60.9739358 Z" id="Stroke-9" stroke="#1F69A5" stroke-width="0.5"></path>
                <path d="M20.0589759,71.8747207 C21.3864719,70.8280411 22.9692557,70.2408794 24.5520394,69.6792465 C24.041464,70.2919369 23.3266585,70.8790987 23.2756009,71.7215481 C23.2500721,72.2576522 23.6840612,72.6661126 24.1180503,72.9214003 C24.9604997,73.3553894 25.9050642,73.508562 26.8496287,73.6362058 C31.7511526,74.1467812 36.703734,74.4275977 41.6563154,74.0957237 C46.1746525,73.8659648 50.6682266,73.1256304 55.1357614,72.3342386 C56.3606318,73.4830332 57.8162822,74.2744251 59.3480085,74.9637019 C53.9609274,76.5464856 48.4214395,77.4655214 42.8559124,77.8992552 C37.597241,78.2569132 32.261728,78.2313845 27.0283301,77.3886798 C24.9604997,77.0057482 22.8416118,76.5720144 20.9524828,75.6019211 C20.1866197,75.1934608 19.3186415,74.6573566 19.0888826,73.7638497 C18.93571,72.9979866 19.4973429,72.3087098 20.0589759,71.8747207" id="Fill-10" fill="#1F69A5"></path>
                <path d="M20.0589759,71.8747207 C21.3864719,70.8280411 22.9692557,70.2408794 24.5520394,69.6792465 C24.041464,70.2919369 23.3266585,70.8790987 23.2756009,71.7215481 C23.2500721,72.2576522 23.6840612,72.6661126 24.1180503,72.9214003 C24.9604997,73.3553894 25.9050642,73.508562 26.8496287,73.6362058 C31.7511526,74.1467812 36.703734,74.4275977 41.6563154,74.0957237 C46.1746525,73.8659648 50.6682266,73.1256304 55.1357614,72.3342386 C56.3606318,73.4830332 57.8162822,74.2744251 59.3480085,74.9637019 C53.9609274,76.5464856 48.4214395,77.4655214 42.8559124,77.8992552 C37.597241,78.2569132 32.261728,78.2313845 27.0283301,77.3886798 C24.9604997,77.0057482 22.8416118,76.5720144 20.9524828,75.6019211 C20.1866197,75.1934608 19.3186415,74.6573566 19.0888826,73.7638497 C18.93571,72.9979866 19.4973429,72.3087098 20.0589759,71.8747207 Z" id="Stroke-11" stroke="#1F69A5" stroke-width="0.5"></path>
                <path d="M23.0203132,83.0050092 C24.1946366,82.0607 25.6497765,81.5756534 27.0793877,81.167193 C26.6198698,81.6009268 25.8029492,82.137031 26.1603519,82.8773654 C26.8496287,83.7708723 28.1260672,83.8732427 29.1472181,84.1030016 C33.4615802,84.6391058 37.8269999,84.9965086 42.1413621,84.6643793 C45.4087894,84.4606597 48.625925,83.8732427 51.8170213,83.311865 C53.6548374,84.3838181 55.5694952,85.3025985 57.5349552,86.1200297 C54.5228156,87.472544 51.2804065,88.3407775 48.038508,88.9534679 C42.5750959,89.9233059 36.933493,90.0509498 31.4448074,89.1834822 C29.0195742,88.7489825 26.5432835,88.1876048 24.3478093,86.9874973 C23.5053598,86.5029613 22.6118529,85.9408178 22.2544501,84.9965086 C21.9736336,84.2561742 22.4331515,83.4647824 23.0203132,83.0050092" id="Fill-12" fill="#1F69A5"></path>
                <path d="M23.0203132,83.0050092 C24.1946366,82.0607 25.6497765,81.5756534 27.0793877,81.167193 C26.6198698,81.6009268 25.8029492,82.137031 26.1603519,82.8773654 C26.8496287,83.7708723 28.1260672,83.8732427 29.1472181,84.1030016 C33.4615802,84.6391058 37.8269999,84.9965086 42.1413621,84.6643793 C45.4087894,84.4606597 48.625925,83.8732427 51.8170213,83.311865 C53.6548374,84.3838181 55.5694952,85.3025985 57.5349552,86.1200297 C54.5228156,87.472544 51.2804065,88.3407775 48.038508,88.9534679 C42.5750959,89.9233059 36.933493,90.0509498 31.4448074,89.1834822 C29.0195742,88.7489825 26.5432835,88.1876048 24.3478093,86.9874973 C23.5053598,86.5029613 22.6118529,85.9408178 22.2544501,84.9965086 C21.9736336,84.2561742 22.4331515,83.4647824 23.0203132,83.0050092 Z" id="Stroke-13" stroke="#1F69A5" stroke-width="0.5"></path>
                <path d="M8.85184577,90.2299064 C11.2004926,89.4387699 13.6257258,88.8005506 16.1020165,88.723709 C17.0976385,88.6981802 18.1187893,88.7489825 18.9867675,89.2595579 C16.0254302,89.4387699 13.0640928,90.1785936 10.4091008,91.5318737 C9.82193904,91.864003 9.15819101,92.2469346 8.92843208,92.9359561 C8.92843208,93.7270927 9.82193904,93.9823804 10.4091008,94.2376681 C14.1107724,95.616477 18.0677318,96.0502108 21.9481049,96.4591817 C33.5126378,97.4287643 45.1535017,97.1734766 56.7182898,96.1270524 C61.0834543,95.6417504 65.4749133,95.1567038 69.7124339,93.9571069 C71.0652034,93.4973337 72.5969296,93.0380712 73.4904366,91.8379637 C74.0270513,91.1234134 73.6693932,90.2299064 73.1335444,89.617216 C74.001012,90.1022626 75.2266482,90.7152084 75.0482021,91.8892765 C74.7160728,93.1144022 73.4649078,93.7526214 72.443757,94.3400384 C69.176585,95.9994085 65.5765178,96.8421132 62.00249,97.581937 C51.6125358,99.6242386 40.9670386,100.084012 30.3981278,99.7779218 C22.4331515,99.4965947 14.4681752,98.7307316 6.60531399,97.3779621 C5.20123163,97.0458328 3.61844788,96.7652716 2.59729708,95.6672792 C1.93354905,94.9014161 2.52071077,93.829463 3.15893002,93.2680854 C4.76724254,91.7871614 6.83507293,90.9704961 8.85184577,90.2299064" id="Fill-14" fill="#1F69A5"></path>
                <path d="M8.85184577,90.2299064 C11.2004926,89.4387699 13.6257258,88.8005506 16.1020165,88.723709 C17.0976385,88.6981802 18.1187893,88.7489825 18.9867675,89.2595579 C16.0254302,89.4387699 13.0640928,90.1785936 10.4091008,91.5318737 C9.82193904,91.864003 9.15819101,92.2469346 8.92843208,92.9359561 C8.92843208,93.7270927 9.82193904,93.9823804 10.4091008,94.2376681 C14.1107724,95.616477 18.0677318,96.0502108 21.9481049,96.4591817 C33.5126378,97.4287643 45.1535017,97.1734766 56.7182898,96.1270524 C61.0834543,95.6417504 65.4749133,95.1567038 69.7124339,93.9571069 C71.0652034,93.4973337 72.5969296,93.0380712 73.4904366,91.8379637 C74.0270513,91.1234134 73.6693932,90.2299064 73.1335444,89.617216 C74.001012,90.1022626 75.2266482,90.7152084 75.0482021,91.8892765 C74.7160728,93.1144022 73.4649078,93.7526214 72.443757,94.3400384 C69.176585,95.9994085 65.5765178,96.8421132 62.00249,97.581937 C51.6125358,99.6242386 40.9670386,100.084012 30.3981278,99.7779218 C22.4331515,99.4965947 14.4681752,98.7307316 6.60531399,97.3779621 C5.20123163,97.0458328 3.61844788,96.7652716 2.59729708,95.6672792 C1.93354905,94.9014161 2.52071077,93.829463 3.15893002,93.2680854 C4.76724254,91.7871614 6.83507293,90.9704961 8.85184577,90.2299064 Z" id="Stroke-15" stroke="#1F69A5" stroke-width="0.5"></path>
                <path d="M72.4692858,98.9604906 C75.0482021,98.0669836 77.8047987,97.1226744 79.7194565,95.0803728 C79.388093,97.3011205 77.4734353,98.8328467 75.584051,99.828724 C71.9587103,101.717853 67.9001465,102.586086 63.8663455,103.300381 C55.339481,104.653662 46.6852279,104.98528 38.0312301,104.832108 C32.1340842,104.653662 26.1858807,104.423903 20.3905946,103.198266 C19.0122963,102.815335 17.5316276,102.560047 16.3317754,101.743382 C21.488587,102.61136 26.7219849,102.969018 31.9553828,103.172738 C40.5585783,103.428025 49.1873026,103.096662 57.7394406,102.023943 C62.6920221,101.334921 67.6701322,100.492217 72.4692858,98.9604906" id="Fill-16" fill="#1F69A5"></path>
                <path d="M72.4692858,98.9604906 C75.0482021,98.0669836 77.8047987,97.1226744 79.7194565,95.0803728 C79.388093,97.3011205 77.4734353,98.8328467 75.584051,99.828724 C71.9587103,101.717853 67.9001465,102.586086 63.8663455,103.300381 C55.339481,104.653662 46.6852279,104.98528 38.0312301,104.832108 C32.1340842,104.653662 26.1858807,104.423903 20.3905946,103.198266 C19.0122963,102.815335 17.5316276,102.560047 16.3317754,101.743382 C21.488587,102.61136 26.7219849,102.969018 31.9553828,103.172738 C40.5585783,103.428025 49.1873026,103.096662 57.7394406,102.023943 C62.6920221,101.334921 67.6701322,100.492217 72.4692858,98.9604906 Z" id="Stroke-17" stroke="#1F69A5" stroke-width="0.5"></path>
                <g id="Group-21" transform="translate(0.000000, 111.560726)">
                    <mask id="mask-2" fill="white">
                        <use xlink:href="#path-1"></use>
                    </mask>
                    <g id="Clip-19"></g>
                    <path d="M5.20123163,25.2591864 C5.22676041,16.8854945 5.17570286,8.51256841 5.22676041,0.11334774 C6.96271678,0.164149992 8.69867315,0.11334774 10.4346295,0.164149992 C10.4091008,9.53371922 10.4346295,18.9277961 10.4091008,28.3226388 C10.3580432,30.9518468 10.3069857,33.7092093 9.03054716,36.0576009 C7.6264648,38.5596756 5.12464532,40.3211608 2.46965323,41.3423116 C1.62720381,40.4235311 0.861340706,39.4531826 0.0188912899,38.5341468 C2.16330798,37.2832371 4.30772468,35.4962232 4.81830008,32.9178174 C5.30334672,30.3904692 5.15017409,27.8120634 5.20123163,25.2591864" id="Fill-18" fill="#D63033" mask="url(#mask-2)"></path>
                    <path d="M5.20123163,25.2591864 C5.22676041,16.8854945 5.17570286,8.51256841 5.22676041,0.11334774 C6.96271678,0.164149992 8.69867315,0.11334774 10.4346295,0.164149992 C10.4091008,9.53371922 10.4346295,18.9277961 10.4091008,28.3226388 C10.3580432,30.9518468 10.3069857,33.7092093 9.03054716,36.0576009 C7.6264648,38.5596756 5.12464532,40.3211608 2.46965323,41.3423116 C1.62720381,40.4235311 0.861340706,39.4531826 0.0188912899,38.5341468 C2.16330798,37.2832371 4.30772468,35.4962232 4.81830008,32.9178174 C5.30334672,30.3904692 5.15017409,27.8120634 5.20123163,25.2591864 Z" id="Stroke-20" stroke="#D63033" stroke-width="0.5" mask="url(#mask-2)"></path>
                </g>
                <path d="M21.5907021,133.603542 C20.4674362,133.960434 19.4207566,134.77761 19.1144114,135.951934 C18.7570086,137.253646 18.8588684,138.785372 19.7015731,139.883364 C20.5184937,140.955317 21.9991624,141.210605 23.2756009,141.057688 C25.0626148,140.853202 26.6198698,139.832052 27.9984234,138.73457 C27.9984234,136.819912 27.9728946,134.930783 27.9984234,133.016125 C25.8540067,133.016125 23.6585325,132.888481 21.5907021,133.603542 Z M15.2595671,121.757938 C18.7059511,120.277014 22.5352666,119.511151 26.2879958,119.919611 C28.2281823,120.14937 30.2449552,120.864431 31.4958649,122.421686 C32.5425445,123.748926 32.925476,125.459609 32.8999473,127.118979 C32.8999473,132.837679 32.8999473,138.530084 32.8999473,144.248784 C31.6235088,144.248784 30.3470703,144.248784 29.045103,144.248784 C28.9174591,143.406079 28.7898153,142.538612 28.6877002,141.670378 C27.2325603,142.819173 25.6753053,143.916655 23.8627626,144.376428 C21.7949322,144.912277 19.5228717,144.861475 17.5060989,144.070338 C15.9488439,143.432119 14.7234629,142.028036 14.2894738,140.39394 C13.6512546,138.019509 13.9831286,135.236873 15.6680274,133.322215 C17.1742248,131.561241 19.4462854,130.693007 21.6928172,130.284802 C23.7606476,129.875831 25.8795355,129.875831 27.9984234,129.875831 C27.9473659,128.267774 28.2537111,126.506289 27.3346754,125.076678 C26.594341,123.978685 25.2413162,123.544952 23.9904065,123.46811 C21.2588281,123.238351 18.5527784,123.927883 15.9743726,124.82139 C15.7190849,123.800239 15.489326,122.779088 15.2595671,121.757938 L15.2595671,121.757938 Z" id="Fill-22" fill="#D63033"></path>
                <path d="M21.5907021,133.603542 C20.4674362,133.960434 19.4207566,134.77761 19.1144114,135.951934 C18.7570086,137.253646 18.8588684,138.785372 19.7015731,139.883364 C20.5184937,140.955317 21.9991624,141.210605 23.2756009,141.057688 C25.0626148,140.853202 26.6198698,139.832052 27.9984234,138.73457 C27.9984234,136.819912 27.9728946,134.930783 27.9984234,133.016125 C25.8540067,133.016125 23.6585325,132.888481 21.5907021,133.603542 Z M15.2595671,121.757938 C18.7059511,120.277014 22.5352666,119.511151 26.2879958,119.919611 C28.2281823,120.14937 30.2449552,120.864431 31.4958649,122.421686 C32.5425445,123.748926 32.925476,125.459609 32.8999473,127.118979 C32.8999473,132.837679 32.8999473,138.530084 32.8999473,144.248784 C31.6235088,144.248784 30.3470703,144.248784 29.045103,144.248784 C28.9174591,143.406079 28.7898153,142.538612 28.6877002,141.670378 C27.2325603,142.819173 25.6753053,143.916655 23.8627626,144.376428 C21.7949322,144.912277 19.5228717,144.861475 17.5060989,144.070338 C15.9488439,143.432119 14.7234629,142.028036 14.2894738,140.39394 C13.6512546,138.019509 13.9831286,135.236873 15.6680274,133.322215 C17.1742248,131.561241 19.4462854,130.693007 21.6928172,130.284802 C23.7606476,129.875831 25.8795355,129.875831 27.9984234,129.875831 C27.9473659,128.267774 28.2537111,126.506289 27.3346754,125.076678 C26.594341,123.978685 25.2413162,123.544952 23.9904065,123.46811 C21.2588281,123.238351 18.5527784,123.927883 15.9743726,124.82139 C15.7190849,123.800239 15.489326,122.779088 15.2595671,121.757938 L15.2595671,121.757938 Z" id="Stroke-23" stroke="#D63033" stroke-width="0.5"></path>
                <path d="M66.3936937,133.628816 C65.3212301,133.986474 64.3261186,134.803139 63.9939893,135.926405 C63.6363313,137.228372 63.7387016,138.760099 64.555367,139.883364 C65.3980717,140.980846 66.9042691,141.210605 68.2062364,141.057688 C69.9677216,140.8024 71.5757788,139.832052 72.9035301,138.657728 C72.8522173,136.794639 72.8782566,134.905254 72.8782566,133.016125 C70.7083112,133.016125 68.4867976,132.888481 66.3936937,133.628816 Z M60.139145,121.757938 C63.6110578,120.277014 67.4403733,119.485877 71.2188866,119.919611 C73.107505,120.14937 75.0482021,120.839157 76.2986013,122.319315 C77.4734353,123.723398 77.8303275,125.587253 77.8047987,127.374267 C77.7795252,133.016125 77.8303275,138.632455 77.7539965,144.274058 C76.477558,144.223255 75.2011194,144.299586 73.9246809,144.223255 C73.7970371,143.355277 73.694922,142.512572 73.5417494,141.670378 C71.7547355,143.202105 69.6103188,144.45327 67.1850856,144.656989 C64.9643379,144.861475 62.4622631,144.580913 60.7260515,142.997619 C58.9135088,141.312976 58.6074188,138.581652 59.0666814,136.258024 C59.5009258,134.114118 61.108983,132.352377 63.0496801,131.407557 C66.0870932,129.927144 69.5595165,129.850302 72.8782566,129.875831 C72.8266885,128.318576 73.107505,126.659206 72.3161131,125.255124 C71.7034226,124.131858 70.4014554,123.621283 69.176585,123.493639 C66.3423809,123.187549 63.5086874,123.90261 60.8536953,124.82139 C60.624447,123.800239 60.3691593,122.779088 60.139145,121.757938 L60.139145,121.757938 Z" id="Fill-24" fill="#D63033"></path>
                <path d="M66.3936937,133.628816 C65.3212301,133.986474 64.3261186,134.803139 63.9939893,135.926405 C63.6363313,137.228372 63.7387016,138.760099 64.555367,139.883364 C65.3980717,140.980846 66.9042691,141.210605 68.2062364,141.057688 C69.9677216,140.8024 71.5757788,139.832052 72.9035301,138.657728 C72.8522173,136.794639 72.8782566,134.905254 72.8782566,133.016125 C70.7083112,133.016125 68.4867976,132.888481 66.3936937,133.628816 Z M60.139145,121.757938 C63.6110578,120.277014 67.4403733,119.485877 71.2188866,119.919611 C73.107505,120.14937 75.0482021,120.839157 76.2986013,122.319315 C77.4734353,123.723398 77.8303275,125.587253 77.8047987,127.374267 C77.7795252,133.016125 77.8303275,138.632455 77.7539965,144.274058 C76.477558,144.223255 75.2011194,144.299586 73.9246809,144.223255 C73.7970371,143.355277 73.694922,142.512572 73.5417494,141.670378 C71.7547355,143.202105 69.6103188,144.45327 67.1850856,144.656989 C64.9643379,144.861475 62.4622631,144.580913 60.7260515,142.997619 C58.9135088,141.312976 58.6074188,138.581652 59.0666814,136.258024 C59.5009258,134.114118 61.108983,132.352377 63.0496801,131.407557 C66.0870932,129.927144 69.5595165,129.850302 72.8782566,129.875831 C72.8266885,128.318576 73.107505,126.659206 72.3161131,125.255124 C71.7034226,124.131858 70.4014554,123.621283 69.176585,123.493639 C66.3423809,123.187549 63.5086874,123.90261 60.8536953,124.82139 C60.624447,123.800239 60.3691593,122.779088 60.139145,121.757938 L60.139145,121.757938 Z" id="Stroke-25" stroke="#D63033" stroke-width="0.5"></path>
                <path d="M35.8102271,120.226211 C37.597241,120.226211 39.3842549,120.226211 41.1712688,120.226211 C42.2176931,123.595754 43.2388439,126.940023 44.2860341,130.310076 C44.898214,132.377906 45.6640771,134.420208 46.0983215,136.539351 C46.3283357,137.48366 46.5320553,138.454009 46.8128717,139.372789 C49.0088565,133.169043 50.6935001,126.761577 51.5617336,120.226211 C53.2971794,120.226211 55.033391,120.226211 56.7690921,120.226211 C55.2634052,128.497788 52.8889743,136.640955 49.3149465,144.248784 C47.2726449,144.248784 45.2303433,144.248784 43.1880417,144.248784 C40.7372797,136.232495 38.260989,128.242501 35.8102271,120.226211" id="Fill-26" fill="#D63033"></path>
                <path d="M35.8102271,120.226211 C37.597241,120.226211 39.3842549,120.226211 41.1712688,120.226211 C42.2176931,123.595754 43.2388439,126.940023 44.2860341,130.310076 C44.898214,132.377906 45.6640771,134.420208 46.0983215,136.539351 C46.3283357,137.48366 46.5320553,138.454009 46.8128717,139.372789 C49.0088565,133.169043 50.6935001,126.761577 51.5617336,120.226211 C53.2971794,120.226211 55.033391,120.226211 56.7690921,120.226211 C55.2634052,128.497788 52.8889743,136.640955 49.3149465,144.248784 C47.2726449,144.248784 45.2303433,144.248784 43.1880417,144.248784 C40.7372797,136.232495 38.260989,128.242501 35.8102271,120.226211 Z" id="Stroke-27" stroke="#D63033" stroke-width="0.5"></path>
                <polyline id="Fill-28" fill="#D63033" points="78.8236519 119.762354 78.1961548 119.762354 78.1961548 119.535658 79.7237964 119.535658 79.7237964 119.762354 79.0929805 119.762354 79.0929805 121.599404 78.8236519 121.599404 78.8236519 119.762354"></polyline>
                <polygon id="Stroke-29" stroke="#D63033" stroke-width="0.5" points="78.8236519 119.762354 78.1961548 119.762354 78.1961548 119.535658 79.7237964 119.535658 79.7237964 119.762354 79.0929805 119.762354 79.0929805 121.599404 78.8236519 121.599404"></polygon>
                <path d="M81.693341,120.693133 C81.6780237,120.405168 81.659643,120.05619 81.659643,119.802179 L81.6535161,119.802179 C81.5802485,120.041128 81.49728,120.301266 81.3933779,120.585912 L81.0288271,121.58715 L80.8268945,121.58715 L80.4901701,120.604548 C80.3921396,120.310456 80.3124898,120.046999 80.2542842,119.802179 L80.2481573,119.802179 C80.2420304,120.059509 80.2267131,120.40236 80.2083324,120.714577 L80.1534456,121.599404 L79.899179,121.599404 L80.0431613,119.535658 L80.3829492,119.535658 L80.734991,120.533833 C80.8207676,120.787844 80.8881636,121.01454 80.9430504,121.228981 L80.9494326,121.228981 C81.0045748,121.020922 81.0780976,120.794227 81.1697459,120.533833 L81.5373602,119.535658 L81.8771481,119.535658 L82.0058131,121.599404 L81.7423562,121.599404 L81.693341,120.693133" id="Fill-30" fill="#D63033"></path>
                <path d="M81.693341,120.693133 C81.6780237,120.405168 81.659643,120.05619 81.659643,119.802179 L81.6535161,119.802179 C81.5802485,120.041128 81.49728,120.301266 81.3933779,120.585912 L81.0288271,121.58715 L80.8268945,121.58715 L80.4901701,120.604548 C80.3921396,120.310456 80.3124898,120.046999 80.2542842,119.802179 L80.2481573,119.802179 C80.2420304,120.059509 80.2267131,120.40236 80.2083324,120.714577 L80.1534456,121.599404 L79.899179,121.599404 L80.0431613,119.535658 L80.3829492,119.535658 L80.734991,120.533833 C80.8207676,120.787844 80.8881636,121.01454 80.9430504,121.228981 L80.9494326,121.228981 C81.0045748,121.020922 81.0780976,120.794227 81.1697459,120.533833 L81.5373602,119.535658 L81.8771481,119.535658 L82.0058131,121.599404 L81.7423562,121.599404 L81.693341,120.693133 Z" id="Stroke-31" stroke="#D63033" stroke-width="0.5"></path>
            </g>
        </g>
    </g>
</svg>