<?xml version="1.0" encoding="UTF-8"?>
<svg width="256px" height="256px" viewBox="0 0 256 256" version="1.1" xmlns="http://www.w3.org/2000/svg" xmlns:xlink="http://www.w3.org/1999/xlink">
    <!-- Generator: Sketch 63.1 (92452) - https://sketch.com -->
    <title>NET Core</title>
    <desc>Created with Sketch.</desc>
    <g id="Supported-technologies" stroke="none" stroke-width="1" fill="none" fill-rule="evenodd">
        <g id=".NET-Core">
            <circle id="Background" fill="#D8D8D8" cx="128" cy="128" r="128"></circle>
            <g id="Logo">
                <circle id="Oval" fill="#5C2D91" fill-rule="nonzero" cx="128" cy="128" r="128"></circle>
                <path d="M128,256 C164.146268,256 196.793118,241.017208 220.068902,216.923271 L39.0574337,35.9497419 C14.9747931,59.224314 0,91.8633818 0,128 C0,198.692448 57.307552,256 128,256 Z" id="Path" fill-opacity="0.1" fill="#FFFFFF"></path>
                <g id="Group" transform="translate(45.000000, 87.000000)" fill-rule="nonzero">
                    <path d="M4.31034159,56.4881194 C3.15676903,56.5062972 2.04826393,56.040725 1.25362517,55.2042985 C0.437661524,54.3981607 -0.0148388381,53.2945012 0.000371435895,52.1475821 C-0.00786455661,51.0020001 0.443567198,49.9009471 1.25362517,49.0908657 C2.04066715,48.2399829 3.15136016,47.7623849 4.31034159,47.7764776 C5.46704702,47.7736477 6.57340719,48.2493825 7.367058,49.0908657 C8.19127044,49.8938816 8.6545239,50.996866 8.6508789,52.1475821 C8.66166502,53.2997137 8.19728068,54.4053906 7.367058,55.2042985 C6.56607655,56.0314925 5.46176223,56.4953045 4.31034159,56.4881194 Z" id="Path" fill="#FFFFFF"></path>
                    <path d="M65.0472968,55.7239403 L57.0386998,55.7239403 L28.397267,11.2792836 C27.6838281,10.1842194 27.0894867,9.01603113 26.6243714,7.79462687 L26.3798341,7.79462687 C26.6520269,10.3322236 26.7541454,12.8851879 26.6855058,15.4364179 L26.6855058,55.7239403 L20.1746998,55.7239403 L20.1746998,2.17192765e-14 L28.6418043,2.17192765e-14 L56.519058,43.6499104 C57.6806102,45.4635622 58.4346003,46.7066269 58.7810282,47.3791045 L58.933864,47.3791045 C58.6113263,44.6609793 58.4785471,41.9236858 58.5364908,39.1871045 L58.5364908,2.17192765e-14 L65.0472968,2.17192765e-14 L65.0472968,55.7239403 Z" id="Path" fill="#FFFFFF"></path>
                    <polygon id="Path" fill="#FFFFFF" points="109.125148 55.7239403 79.5055655 55.7239403 79.5055655 2.17192765e-14 107.749625 2.17192765e-14 107.749625 5.89946269 86.1692073 5.89946269 86.1692073 24.4231642 106.282401 24.4231642 106.282401 30.2920597 86.1692073 30.2920597 86.1692073 49.6105075 109.155715 49.6105075"></polygon>
                    <polygon id="Path" fill="#FFFFFF" points="152.866759 5.89946269 136.666162 5.89946269 136.666162 55.7239403 130.155357 55.7239403 130.155357 5.89946269 114.138162 5.89946269 114.138162 2.17192765e-14 152.866759 2.17192765e-14"></polygon>
                    <path d="M61.5320729,93.6272239 C59.3252684,94.695991 56.8910021,95.2101249 54.4404908,95.1250149 C51.1461002,95.2734241 47.9480969,93.9919942 45.6677147,91.609791 C43.4217271,89.0956626 42.2383314,85.8084524 42.366461,82.4396418 C42.2003448,78.7544056 43.534776,75.159161 46.0650879,72.4747463 C48.5327798,69.9467319 51.9488261,68.5714405 55.4797744,68.6844179 C57.5697428,68.6129958 59.6517005,68.9773384 61.5932073,69.7542687 L61.5932073,72.8109851 C59.7239373,71.7761312 57.6161203,71.2491769 55.4797744,71.2826269 C52.7542748,71.2058598 50.1309511,72.3221677 48.2964908,74.3393433 C46.390149,76.5111231 45.4035448,79.3393884 45.5454461,82.2256716 C45.4027111,84.9598173 46.3227454,87.6432506 48.1130879,89.7146269 C49.8509503,91.5833609 52.3185918,92.5994486 54.8684311,92.4962388 C57.2154195,92.557673 59.5332275,91.9649915 61.5626401,90.7844776 L61.5320729,93.6272239 Z" id="Path" fill="#F2F2F2"></path>
                    <path d="M74.0340431,95.1250149 C71.5720526,95.2047179 69.1966235,94.2121677 67.5232371,92.4045373 C65.8517634,90.5392129 64.9839679,88.0896129 65.1084311,85.5880597 C64.9542429,82.9407565 65.8681435,80.3421957 67.6455058,78.374209 C69.4605958,76.6027651 71.9282891,75.6621645 74.4619834,75.776 C76.85979,75.6483144 79.193606,76.5751408 80.8505207,78.3130746 C82.4751552,80.2709804 83.2946928,82.7733018 83.143058,85.3129552 C83.2713139,87.8904027 82.3821736,90.4151219 80.6671177,92.343403 C78.9622789,94.1860514 76.5432528,95.2004817 74.0340431,95.1250149 L74.0340431,95.1250149 Z M74.2480132,78.4047761 C72.5446807,78.3330742 70.9016273,79.042063 69.7852073,80.3305075 C68.6090298,81.8449964 68.022507,83.7349032 68.1345804,85.649194 C68.0278272,87.5065599 68.6162362,89.337166 69.7852073,90.7844776 C70.9127936,92.0542392 72.551314,92.7500493 74.2480132,92.6796418 C75.9103711,92.7777548 77.5244589,92.1005152 78.6191177,90.8456119 C79.7304203,89.3270742 80.271515,87.4657084 80.1474759,85.5880597 C80.2683361,83.701271 79.7278944,81.8313426 78.6191177,80.2999403 C77.5393622,79.0184263 75.9214643,78.3169601 74.2480132,78.4047761 L74.2480132,78.4047761 Z" id="Shape" fill="#F2F2F2"></path>
                    <path d="M97.4179237,79.321791 C96.7577008,78.8892707 95.9738315,78.6852499 95.1865207,78.7410149 C93.9360808,78.7865165 92.7902156,79.4511183 92.1298043,80.5139104 C91.2200203,81.9542997 90.781943,83.6424998 90.8765505,85.3435224 L90.8765505,94.6970746 L87.8198341,94.6970746 L87.8198341,76.3567761 L90.8765505,76.3567761 L90.8765505,80.1776716 L90.8765505,80.1776716 C91.2125843,78.9954157 91.88097,77.9344859 92.8022819,77.1209552 C93.5994642,76.4291128 94.6200663,76.0491014 95.6755953,76.0511045 C96.2664785,76.0245499 96.8571796,76.1074554 97.4179237,76.2956418 L97.4179237,79.321791 Z" id="Path" fill="#F2F2F2"></path>
                    <path d="M115.330282,86.2911045 L102.400371,86.2911045 C102.313612,87.9998817 102.869758,89.6792236 103.959297,90.9984478 C105.105248,92.1413877 106.683998,92.7417575 108.299834,92.6490746 C110.37196,92.628408 112.375998,91.9065235 113.985327,90.6010746 L113.985327,93.3521194 C112.095425,94.5978061 109.857438,95.2081662 107.596789,95.0944478 C105.287402,95.210996 103.046245,94.2921214 101.483357,92.5879403 C99.8920482,90.6030105 99.0965982,88.0967982 99.2519535,85.5574925 C99.1420902,83.0119429 100.005508,80.5200531 101.666759,78.5881791 C103.197726,76.8196576 105.441996,75.8321787 107.780192,75.8982687 C109.892493,75.7799228 111.942561,76.6359953 113.343416,78.2213731 C114.750868,80.0772955 115.445091,82.3769113 115.299715,84.7016119 L115.330282,86.2911045 Z M112.273565,83.8151642 C112.335559,82.3987635 111.903338,81.0048494 111.050879,79.872 C110.203496,78.9145929 108.965167,78.396746 107.688491,78.4659104 C106.35845,78.4496002 105.082811,78.9931333 104.173267,79.9637015 C103.167195,81.0280047 102.534254,82.3904384 102.369804,83.8457313 L112.273565,83.8151642 Z" id="Shape" fill="#F2F2F2"></path>
                </g>
            </g>
        </g>
    </g>
</svg>