<?xml version="1.0" encoding="UTF-8"?>
<svg width="256px" height="256px" viewBox="0 0 256 256" version="1.1" xmlns="http://www.w3.org/2000/svg" xmlns:xlink="http://www.w3.org/1999/xlink">
    <!-- Generator: Sketch 63.1 (92452) - https://sketch.com -->
    <title>React</title>
    <desc>Created with Sketch.</desc>
    <g id="Supported-technologies" stroke="none" stroke-width="1" fill="none" fill-rule="evenodd">
        <g id="React">
            <circle id="Background" fill="#EEEEEE" cx="128" cy="128" r="128"></circle>
            <g id="Group" transform="translate(51.000000, 60.000000)" fill="#61DAFB" fill-rule="nonzero">
                <path d="M153.381463,68.2146341 C153.381463,58.0682927 140.675122,48.4526829 121.194146,42.4897561 C125.689756,22.6341463 123.691707,6.83707317 114.887805,1.7795122 C112.858537,0.593170732 110.485854,0.0312195122 107.894634,0.0312195122 L107.894634,6.99317073 C109.330732,6.99317073 110.485854,7.27414634 111.453659,7.80487805 C115.699512,10.24 117.541463,19.5121951 116.105366,31.4380488 C115.761951,34.3726829 115.2,37.4634146 114.513171,40.6165854 C108.394146,39.1180488 101.713171,37.9629268 94.6887805,37.2136585 C90.4741463,31.4380488 86.1034146,26.1931707 81.7014634,21.6039024 C91.8790244,12.1443902 101.432195,6.96195122 107.925854,6.96195122 L107.925854,0 C107.925854,0 107.925854,0 107.925854,0 C99.3404878,0 88.1014634,6.11902439 76.737561,16.7336585 C65.3736585,6.18146341 54.1346341,0.124878049 45.5492683,0.124878049 L45.5492683,7.08682927 C52.0117073,7.08682927 61.5960976,12.2380488 71.7736585,21.635122 C67.4029268,26.2243902 63.0321951,31.4380488 58.88,37.2136585 C51.8243902,37.9629268 45.1434146,39.1180488 39.0243902,40.6478049 C38.3063415,37.5258537 37.7756098,34.497561 37.4009756,31.5941463 C35.9336585,19.6682927 37.7443902,10.3960976 41.9590244,7.9297561 C42.8956098,7.36780488 44.1131707,7.11804878 45.5492683,7.11804878 L45.5492683,0.156097561 C45.5492683,0.156097561 45.5492683,0.156097561 45.5492683,0.156097561 C42.9268293,0.156097561 40.5541463,0.71804878 38.4936585,1.90439024 C29.7209756,6.96195122 27.7541463,22.7278049 32.2809756,42.5209756 C12.862439,48.515122 0.218536585,58.0995122 0.218536585,68.2146341 C0.218536585,78.3609756 12.924878,87.9765854 32.4058537,93.9395122 C27.9102439,113.795122 29.9082927,129.592195 38.7121951,134.649756 C40.7414634,135.836098 43.1141463,136.398049 45.7365854,136.398049 C54.3219512,136.398049 65.5609756,130.279024 76.924878,119.66439 C88.2887805,130.216585 99.5278049,136.273171 108.113171,136.273171 C110.73561,136.273171 113.108293,135.71122 115.16878,134.524878 C123.941463,129.467317 125.908293,113.701463 121.381463,93.9082927 C140.737561,87.9453659 153.381463,78.3297561 153.381463,68.2146341 Z M112.733659,47.3912195 C111.578537,51.4185366 110.142439,55.5707317 108.519024,59.7229268 C107.239024,57.2253659 105.896585,54.7278049 104.429268,52.2302439 C102.993171,49.7326829 101.463415,47.297561 99.9336585,44.924878 C104.366829,45.5804878 108.643902,46.3921951 112.733659,47.3912195 Z M98.435122,80.64 C96,84.8546341 93.502439,88.8507317 90.9112195,92.5658537 C86.2595122,92.9717073 81.5453659,93.1902439 76.8,93.1902439 C72.0858537,93.1902439 67.3717073,92.9717073 62.7512195,92.5970732 C60.16,88.8819512 57.6312195,84.9170732 55.1960976,80.7336585 C52.8234146,76.6439024 50.6692683,72.4917073 48.702439,68.3082927 C50.6380488,64.124878 52.8234146,59.9414634 55.164878,55.8517073 C57.6,51.6370732 60.097561,47.6409756 62.6887805,43.9258537 C67.3404878,43.52 72.0546341,43.3014634 76.8,43.3014634 C81.5141463,43.3014634 86.2282927,43.52 90.8487805,43.8946341 C93.44,47.6097561 95.9687805,51.5746341 98.4039024,55.7580488 C100.776585,59.8478049 102.930732,64 104.897561,68.1834146 C102.930732,72.3668293 100.776585,76.5502439 98.435122,80.64 Z M108.519024,76.5814634 C110.204878,80.764878 111.640976,84.9482927 112.827317,89.0068293 C108.737561,90.0058537 104.429268,90.8487805 99.964878,91.5043902 C101.494634,89.1004878 103.02439,86.6341463 104.460488,84.1053659 C105.896585,81.6078049 107.239024,79.0790244 108.519024,76.5814634 Z M76.862439,109.892683 C73.9590244,106.89561 71.0556098,103.555122 68.1834146,99.902439 C70.9931707,100.027317 73.8653659,100.120976 76.7687805,100.120976 C79.7034146,100.120976 82.6068293,100.058537 85.4478049,99.902439 C82.6380488,103.555122 79.7346341,106.89561 76.862439,109.892683 Z M53.635122,91.5043902 C49.2019512,90.8487805 44.924878,90.0370732 40.835122,89.0380488 C41.9902439,85.0107317 43.4263415,80.8585366 45.0497561,76.7063415 C46.3297561,79.2039024 47.6721951,81.7014634 49.1395122,84.1990244 C50.6068293,86.6965854 52.1053659,89.1317073 53.635122,91.5043902 Z M76.7063415,26.5365854 C79.6097561,29.5336585 82.5131707,32.8741463 85.3853659,36.5268293 C82.5756098,36.4019512 79.7034146,36.3082927 76.8,36.3082927 C73.8653659,36.3082927 70.9619512,36.3707317 68.1209756,36.5268293 C70.9307317,32.8741463 73.8341463,29.5336585 76.7063415,26.5365854 Z M53.6039024,44.924878 C52.0741463,47.3287805 50.5443902,49.795122 49.1082927,52.3239024 C47.6721951,54.8214634 46.3297561,57.3190244 45.0497561,59.8165854 C43.3639024,55.6331707 41.9278049,51.4497561 40.7414634,47.3912195 C44.8312195,46.4234146 49.1395122,45.5804878 53.6039024,44.924878 Z M25.3502439,84.0117073 C14.2985366,79.297561 7.14926829,73.1160976 7.14926829,68.2146341 C7.14926829,63.3131707 14.2985366,57.1004878 25.3502439,52.417561 C28.035122,51.262439 30.9697561,50.2321951 33.9980488,49.2643902 C35.777561,55.3834146 38.1190244,61.7521951 41.022439,68.2770732 C38.1502439,74.7707317 35.84,81.1082927 34.0917073,87.1960976 C31.0009756,86.2282927 28.0663415,85.1668293 25.3502439,84.0117073 Z M42.1463415,128.62439 C37.9004878,126.189268 36.0585366,116.917073 37.4946341,104.99122 C37.8380488,102.056585 38.4,98.9658537 39.0868293,95.8126829 C45.2058537,97.3112195 51.8868293,98.4663415 58.9112195,99.2156098 C63.1258537,104.99122 67.4965854,110.236098 71.8985366,114.825366 C61.7209756,124.284878 52.1678049,129.467317 45.6741463,129.467317 C44.2692683,129.436098 43.0829268,129.155122 42.1463415,128.62439 Z M116.199024,104.835122 C117.666341,116.760976 115.85561,126.033171 111.640976,128.499512 C110.70439,129.061463 109.486829,129.31122 108.050732,129.31122 C101.588293,129.31122 92.0039024,124.16 81.8263415,114.762927 C86.1970732,110.173659 90.5678049,104.96 94.72,99.1843902 C101.77561,98.435122 108.456585,97.28 114.57561,95.7502439 C115.293659,98.9034146 115.85561,101.931707 116.199024,104.835122 Z M128.218537,84.0117073 C125.533659,85.1668293 122.599024,86.1970732 119.570732,87.164878 C117.79122,81.0458537 115.449756,74.6770732 112.546341,68.1521951 C115.418537,61.6585366 117.72878,55.3209756 119.477073,49.2331707 C122.567805,50.2009756 125.502439,51.262439 128.249756,52.417561 C139.301463,57.1317073 146.450732,63.3131707 146.450732,68.2146341 C146.419512,73.1160976 139.270244,79.3287805 128.218537,84.0117073 Z" id="Shape"></path>
                <circle id="Oval" cx="76.7687805" cy="68.2146341" r="14.2673171"></circle>
            </g>
        </g>
    </g>
</svg>