<?xml version="1.0" encoding="UTF-8"?>
<svg width="256px" height="256px" viewBox="0 0 256 256" version="1.1" xmlns="http://www.w3.org/2000/svg" xmlns:xlink="http://www.w3.org/1999/xlink">
    <!-- Generator: Sketch 63.1 (92452) - https://sketch.com -->
    <title>Android</title>
    <desc>Created with Sketch.</desc>
    <g id="Supported-technologies" stroke="none" stroke-width="1" fill="none" fill-rule="evenodd">
        <g id="Android">
            <circle id="Background" fill="#EEEEEE" cx="128" cy="128" r="128"></circle>
            <g id="Logo" transform="translate(52.000000, 61.000000)" fill-rule="nonzero">
                <g id="g80302" transform="translate(0.001589, 99.272398)" fill="#000000">
                    <path d="M10.665626,11.1370211 C5.40635178,11.1370211 -0.00158870616,15.3514308 -0.00158870616,22.7281754 C-0.00158870616,29.4719734 4.75325606,34.2353116 10.665626,34.2353116 C15.5459939,34.2353116 17.7211006,30.9595523 17.7211006,30.9595523 L17.7211006,32.3874478 C17.7211006,33.0623424 18.3591953,33.8153432 19.1489961,33.8153432 L22.6767334,33.8153432 L22.6767334,11.6409923 L17.7211006,11.6409923 L17.7211006,14.4547895 C17.7211006,14.4547895 15.5277696,11.1370211 10.665626,11.1370211 Z M11.5483814,15.671219 C15.8778807,15.671219 18.1489361,19.4788436 18.1489361,22.7265256 C18.1489361,26.3439179 15.4524893,29.779388 11.5575623,29.779388 C8.30164655,29.779388 5.04017029,27.1424566 5.04017029,22.678788 C5.04017029,18.649539 7.84687941,15.671219 11.5483814,15.671219 Z" id="path825"></path>
                    <path d="M29.5642176,33.8153585 C28.8028455,33.8153585 28.1363221,33.2692561 28.1363221,32.387463 L28.1363221,11.6410076 L33.0919549,11.6410076 L33.0919549,14.3850545 C34.2149105,12.6971611 36.4087915,11.1302844 39.7762222,11.1302844 C45.2800961,11.1302844 48.2108465,15.5177256 48.2108465,19.6204218 L48.2108465,33.8153585 L44.7670968,33.8153585 C43.8641006,33.8153585 43.2552137,33.0594246 43.2552137,32.3034755 L43.2552137,20.7123364 C43.2552137,18.4382105 41.8618726,15.6763518 38.6394571,15.6763518 C35.1623751,15.6763518 33.0919549,18.9624377 33.0919549,22.0562291 L33.0919549,33.8153585 L29.5642176,33.8153585 Z" id="path829"></path>
                    <path d="M62.6577612,11.1370211 C57.3985023,11.1370211 51.9905618,15.3514308 51.9905618,22.7281754 C51.9905618,29.4719734 56.7454066,34.2353116 62.6577612,34.2353116 C67.5381291,34.2353116 69.7132511,30.9595523 69.7132511,30.9595523 L69.7132511,32.3874478 C69.7132511,33.0623424 70.3513458,33.8153432 71.1411466,33.8153432 L74.6688839,33.8153432 L74.6688839,0.553824494 L69.7132511,0.553824494 L69.7132511,14.4547742 C69.7132511,14.4547742 67.5199048,11.1370211 62.6577612,11.1370211 Z M63.5405319,15.671219 C67.8700312,15.671219 70.1410866,19.4788436 70.1410866,22.7265256 C70.1410866,26.3439179 67.4446246,29.779388 63.5497128,29.779388 C60.293797,29.779388 57.0323208,27.1424566 57.0323208,22.678788 C57.0323208,18.6495237 59.8390146,15.671219 63.5405319,15.671219 L63.5405319,15.671219 Z" id="path833"></path>
                    <path d="M81.5563681,33.8153585 C80.794996,33.8153585 80.1284726,33.2692561 80.1284726,32.387463 L80.1284726,11.6410076 L85.0841054,11.6410076 L85.0841054,15.3367353 C85.9370879,13.2663762 87.7777414,11.3890296 91.0476653,11.3890296 C91.9592313,11.3890296 92.8115416,11.55702 92.8115416,11.55702 L92.8115416,16.6806279 C92.8115416,16.6806279 91.7472765,16.2606596 90.4597066,16.2606596 C86.9826245,16.2606596 85.0841054,19.5467455 85.0841054,22.6405522 L85.0841054,33.8153585 L81.5563681,33.8153585 Z" id="path835"></path>
                    <path d="M122.881304,33.8153585 C122.119932,33.8153585 121.453408,33.2692561 121.453408,32.387463 L121.453408,11.6410076 L126.409041,11.6410076 L126.409041,33.8153585 L122.881304,33.8153585 Z" id="path837"></path>
                    <path d="M140.939974,11.1370211 C135.6807,11.1370211 130.272759,15.3514308 130.272759,22.7281754 C130.272759,29.4719734 135.027604,34.2353116 140.939974,34.2353116 C145.820327,34.2353116 147.995441,30.9595523 147.995441,30.9595523 L147.995441,32.3874478 C147.995441,33.0623424 148.633536,33.8153432 149.423336,33.8153432 L152.951074,33.8153432 L152.951074,0.553824494 L147.995441,0.553824494 L147.995441,14.4547742 C147.995441,14.4547742 145.802118,11.1370211 140.939974,11.1370211 L140.939974,11.1370211 Z M141.822729,15.671219 C146.152229,15.671219 148.423276,19.4788436 148.423276,22.7265256 C148.423276,26.3439179 145.726837,29.779388 141.83191,29.779388 C138.575995,29.779388 135.314518,27.1424566 135.314518,22.678788 C135.314518,18.6495237 138.121227,15.671219 141.822729,15.671219 Z" id="path839"></path>
                    <circle id="path841" cx="123.892217" cy="3.58059997" r="3.27767014"></circle>
                    <path d="M105.880773,11.1296428 C100.372897,11.1296428 94.3216221,15.2410005 94.3216221,22.6887938 C94.3216221,29.4756702 99.475889,34.2361365 105.868797,34.2361365 C113.747404,34.2361365 117.594456,27.9025608 117.594456,22.7317806 C117.594456,16.386702 112.640687,11.1296428 105.880773,11.1296428 Z M105.898799,15.7575133 C109.707645,15.7575133 112.548741,18.8273366 112.548741,22.7027408 C112.548741,26.6453596 109.532781,29.6876861 105.910118,29.6876861 C102.547225,29.6876861 99.2782173,26.9509869 99.2782173,22.7690235 C99.2782173,18.5173556 102.387376,15.7575133 105.898799,15.7575133 L105.898799,15.7575133 Z" id="path843"></path>
                </g>
                <path d="M113.806114,25.8251285 L126.48541,3.86098571 C127.200911,2.62966813 126.768287,1.06555061 125.553595,0.350050109 C124.338915,-0.365438833 122.75816,0.0505423036 122.059302,1.28186566 L109.213609,23.5288846 C99.4129396,19.0528529 88.380959,16.5569314 76.5169813,16.5569314 C64.6530152,16.5569314 53.6210288,19.0528529 43.8203599,23.5288846 L30.974666,1.28186566 C30.2591655,0.0505423036 28.6950538,-0.365438833 27.4637304,0.350050109 C26.2324013,1.06555061 25.8164144,2.62966813 26.5319149,3.86098571 L39.2112174,25.8251285 C17.3469123,37.672463 2.53775028,59.802997 0.0917467388,85.7107055 L152.942222,85.7107055 C150.496213,59.802997 135.687046,37.672463 113.806114,25.8251285 Z M41.4242685,64.2457424 C37.8800523,64.2457424 35.0180619,61.3671088 35.0180619,57.8395416 C35.0180619,54.2953196 37.8966955,51.4333349 41.4242685,51.4333349 C44.9684847,51.4333349 47.8305533,54.3119628 47.8305533,57.8395416 C47.8471877,61.3671088 44.9684847,64.2457424 41.4242685,64.2457424 Z M111.593057,64.2457424 C108.048846,64.2457424 105.186839,61.3671088 105.186839,57.8395416 C105.186839,54.2953196 108.065478,51.4333349 111.593057,51.4333349 C115.137279,51.4333349 117.999335,54.3119628 117.999335,57.8395416 C118.015912,61.3671088 115.137279,64.2457424 111.593057,64.2457424 Z" id="path80319" fill="#32DE84"></path>
            </g>
        </g>
    </g>
</svg>