<?xml version="1.0" encoding="UTF-8"?>
<svg width="256px" height="256px" viewBox="0 0 256 256" version="1.1" xmlns="http://www.w3.org/2000/svg" xmlns:xlink="http://www.w3.org/1999/xlink">
    <!-- Generator: Sketch 63.1 (92452) - https://sketch.com -->
    <title>ASP.NET</title>
    <desc>Created with Sketch.</desc>
    <g id="Supported-technologies" stroke="none" stroke-width="1" fill="none" fill-rule="evenodd">
        <g id="ASP.NET">
            <circle id="Background" fill="#5A2967" cx="128" cy="128" r="128"></circle>
            <g id="Logo" transform="translate(53.000000, 84.000000)" fill="#FFFFFE">
                <path d="M100.2935,22.5041 C101.2126,21.6935 101.6711,20.6799 101.6711,19.4521 C101.6711,18.337 101.3015,17.4207 100.57,16.7025 C100.0079,16.132 99.0839,15.5762 97.8043,15.0428 C96.6654,14.5577 95.9094,14.1398 95.5531,13.7975 C95.1548,13.4293 94.9518,12.9127 94.9518,12.2498 C94.9518,11.6345 95.1933,11.1333 95.6728,10.7392 C96.1481,10.3528 96.7879,10.1575 97.5817,10.1575 C98.8641,10.1575 99.9953,10.511 100.9816,11.2257 L100.9816,8.8086 C100.0352,8.3403 98.9705,8.1079 97.7777,8.1079 C96.2237,8.1079 94.9581,8.5188 93.9697,9.349 C92.989,10.1729 92.492,11.2089 92.492,12.4507 C92.492,13.5616 92.8098,14.4653 93.444,15.159 C93.9697,15.7442 94.865,16.3077 96.1208,16.8586 C97.3381,17.3934 98.1592,17.8519 98.5799,18.2341 C99.0027,18.6114 99.2113,19.0958 99.2113,19.6817 C99.2113,21.0754 98.26,21.7754 96.3588,21.7754 C94.9357,21.7754 93.6393,21.2952 92.4626,20.3397 L92.4626,22.9192 C93.5196,23.5233 94.7621,23.8215 96.1831,23.8215 C97.9128,23.8215 99.2904,23.3826 100.2935,22.5041" id="Fill-4"></path>
                <path d="M122.8601,23.4624 L125.2597,23.4624 L125.2597,10.5061 L128.7737,10.5061 L128.7737,8.4733 L125.2597,8.4733 L125.2597,6.1633 C125.2597,4.0458 126.0948,2.9874 127.7734,2.9874 C128.3698,2.9874 128.8962,3.1204 129.368,3.3822 L129.368,1.215 C128.948,1.0435 128.3698,0.9546 127.6299,0.9546 C126.3496,0.9546 125.2737,1.3578 124.3924,2.1691 C123.3641,3.1022 122.8601,4.3958 122.8601,6.0436 L122.8601,8.4733 L120.3114,8.4733 L120.3114,10.5061 L122.8601,10.5061 L122.8601,23.4624" id="Fill-5"></path>
                <path d="M46.3739,4.6688 C46.8135,4.6688 47.1873,4.5183 47.4911,4.2138 C47.797,3.9128 47.9524,3.5432 47.9524,3.1022 C47.9524,2.6689 47.797,2.2993 47.4911,1.9983 C47.1873,1.7001 46.8135,1.5531 46.3739,1.5531 C45.9455,1.5531 45.5745,1.7001 45.2679,1.9983 C44.9648,2.2993 44.8122,2.6689 44.8122,3.1022 C44.8122,3.5628 44.9648,3.9366 45.2679,4.2292 C45.5745,4.5218 45.9455,4.6688 46.3739,4.6688" id="Fill-6"></path>
                <path d="M58.3908,23.8215 C59.9749,23.8215 61.3469,23.4729 62.4963,22.7673 L62.4963,20.4867 C61.3469,21.3477 60.1212,21.7754 58.8087,21.7754 C57.2575,21.7754 56.0262,21.2693 55.1022,20.2543 C54.1803,19.2351 53.7162,17.8582 53.7162,16.1117 C53.7162,14.2973 54.2265,12.8406 55.2275,11.7542 C56.1893,10.6909 57.4311,10.1575 58.9571,10.1575 C60.2269,10.1575 61.412,10.5453 62.5292,11.3314 L62.5292,8.8688 C61.5205,8.3648 60.3655,8.1079 59.0607,8.1079 C56.6807,8.1079 54.7844,8.8639 53.3774,10.3759 C51.9627,11.8872 51.2599,13.8745 51.2599,16.3273 C51.2599,18.5169 51.9053,20.3033 53.1905,21.6858 C54.5114,23.1096 56.2411,23.8215 58.3908,23.8215" id="Fill-7"></path>
                <path d="M143.7033,7.3344 L144.3347,7.3344 C144.7743,7.3344 145.0858,7.41 145.2699,7.557 C145.4337,7.6949 145.5142,7.9007 145.5142,8.1933 C145.5142,8.7743 145.167,9.0641 144.4642,9.0641 L143.7033,9.0641 L143.7033,7.3344 Z M143.7033,9.6717 L144.1695,9.6717 C144.4978,9.6717 144.7981,9.9748 145.0781,10.588 L145.6304,11.8053 L146.4956,11.8053 L145.8292,10.4529 C145.5527,9.8943 145.2699,9.5821 144.9885,9.5142 L144.9885,9.4946 C145.3952,9.4092 145.7151,9.244 145.9377,8.9962 C146.1652,8.7533 146.2786,8.4572 146.2786,8.1079 C146.2786,7.7131 146.1379,7.3967 145.8614,7.1496 C145.5338,6.8633 145.0557,6.724 144.4187,6.724 L142.99,6.724 L142.99,11.8053 L143.7033,11.8053 L143.7033,9.6717 L143.7033,9.6717 Z" id="Fill-8"></path>
                <path d="M132.6594,19.373 C132.6594,22.3193 133.9663,23.7956 136.5836,23.7956 C137.516,23.7956 138.2685,23.6353 138.8362,23.3098 L138.8362,21.263 C138.3966,21.5857 137.8814,21.7481 137.285,21.7481 C136.4849,21.7481 135.9179,21.536 135.5714,21.1055 C135.227,20.689 135.0618,19.9687 135.0618,18.9635 L135.0618,10.5061 L138.8362,10.5061 L138.8362,8.4733 L135.0618,8.4733 L135.0618,4.0381 C134.2211,4.3111 133.4238,4.5743 132.6594,4.8144 L132.6594,8.4733 L130.0862,8.4733 L130.0862,10.5061 L132.6594,10.5061 L132.6594,19.373" id="Fill-9"></path>
                <path d="M142.0324,6.8087 C142.703,6.1332 143.5465,5.7972 144.5601,5.7972 C145.5415,5.7972 146.3766,6.1332 147.0577,6.8024 C147.7374,7.4723 148.079,8.3158 148.079,9.3168 C148.079,10.3227 147.7374,11.1683 147.0514,11.8375 C146.3661,12.5207 145.5338,12.8581 144.5601,12.8581 C143.578,12.8581 142.7457,12.5249 142.0653,11.8515 C141.3772,11.1767 141.0293,10.3276 141.0293,9.3168 C141.0293,8.3235 141.3632,7.4863 142.0324,6.8087 Z M144.5405,13.2613 C145.6738,13.2613 146.6258,12.8784 147.3986,12.1175 C148.1742,11.3587 148.5592,10.4179 148.5592,9.2944 C148.5592,8.1506 148.1714,7.2042 147.3909,6.4559 C146.6314,5.7272 145.6927,5.3576 144.5734,5.3576 C143.4317,5.3576 142.4769,5.7426 141.7097,6.507 C140.9432,7.277 140.5596,8.2129 140.5596,9.3266 C140.5596,10.4655 140.9348,11.4042 141.6908,12.1497 C142.4454,12.8875 143.3967,13.2613 144.5405,13.2613 L144.5405,13.2613 Z" id="Fill-10"></path>
                <polygon id="Fill-11" points="45.1461 23.4624 47.5394 23.4624 47.5394 8.4733 45.1461 8.4733"></polygon>
                <path d="M78.9029,11.6205 C79.7975,10.6454 80.9938,10.1575 82.4855,10.1575 C83.9982,10.1575 85.1742,10.6398 86.0156,11.6044 C86.8794,12.6103 87.3134,14.0747 87.3134,15.9941 C87.3134,17.8267 86.9102,19.24 86.0968,20.241 C85.2694,21.263 84.0626,21.7754 82.4855,21.7754 C80.9609,21.7754 79.7464,21.2707 78.8434,20.2592 C77.9348,19.2533 77.484,17.8463 77.484,16.0515 C77.484,14.1398 77.9565,12.6649 78.9029,11.6205 Z M82.3084,23.8215 C84.5883,23.8215 86.4055,23.0991 87.7565,21.6557 C89.0977,20.2165 89.7725,18.2992 89.7725,15.9101 C89.7725,13.4811 89.1439,11.5722 87.8965,10.1834 C86.6379,8.8037 84.8921,8.1079 82.6584,8.1079 C80.3862,8.1079 78.5753,8.7743 77.2187,10.0959 C75.7529,11.5239 75.0228,13.5357 75.0228,16.1418 C75.0228,18.4266 75.6682,20.2648 76.9534,21.6557 C78.2687,23.0991 80.0579,23.8215 82.3084,23.8215 L82.3084,23.8215 Z" id="Fill-12"></path>
                <path d="M106.5025,16.0515 C106.5025,14.1398 106.9708,12.6649 107.9144,11.6205 C108.8153,10.6454 110.0116,10.1575 111.5019,10.1575 C113.0125,10.1575 114.1913,10.6398 115.0299,11.6044 C115.8972,12.6103 116.3312,14.0747 116.3312,15.9941 C116.3312,17.8267 115.9273,19.24 115.1146,20.241 C114.2872,21.263 113.0825,21.7754 111.5019,21.7754 C109.9815,21.7754 108.7663,21.2707 107.8528,20.2592 C106.9526,19.2533 106.5025,17.8463 106.5025,16.0515 Z M116.7701,21.6557 C118.1155,20.2165 118.7966,18.2992 118.7966,15.9101 C118.7966,13.4811 118.1617,11.5722 116.9115,10.1834 C115.6557,8.8037 113.9127,8.1079 111.679,8.1079 C109.4033,8.1079 107.5868,8.7743 106.2344,10.0959 C104.7756,11.5239 104.0399,13.5357 104.0399,16.1418 C104.0399,18.4266 104.686,20.2648 105.9712,21.6557 C107.2858,23.0991 109.0757,23.8215 111.329,23.8215 C113.6117,23.8215 115.4261,23.0991 116.7701,21.6557 L116.7701,21.6557 Z" id="Fill-13"></path>
                <polyline id="Fill-14" points="81.4957 60.3468 101.3722 60.3468 101.3722 54.5151 81.4957 54.5151 81.4957 36.2101 102.9479 36.2101 102.9479 30.3784 75.0501 30.3784 75.0501 85.4068 104.2142 85.4068 104.2142 79.5751 81.4957 79.5751 81.4957 60.3468"></polyline>
                <polyline id="Fill-15" points="110.2706 36.2101 126.1522 36.2101 126.1522 85.4068 132.5999 85.4068 132.5999 36.2101 148.45 36.2101 148.45 30.3784 110.2706 30.3784 110.2706 36.2101"></polyline>
                <path d="M4.8135,77.6193 C3.6396,77.6193 2.6414,78.0365 1.8231,78.8849 C1.0013,79.7284 0.5946,80.749 0.5946,81.9551 C0.5946,83.1297 1.0013,84.1461 1.8231,85.0036 C2.6414,85.8597 3.6396,86.2909 4.8135,86.2909 C6.0175,86.2909 7.0423,85.8597 7.8858,85.0036 C8.7314,84.1461 9.1521,83.1297 9.1521,81.9551 C9.1521,80.7791 8.7314,79.7585 7.8858,78.9024 C7.0423,78.0421 6.0175,77.6193 4.8135,77.6193" id="Fill-16"></path>
                <path d="M70.2096,9.0312 C69.4809,9.6276 68.9384,10.4683 68.5863,11.5645 L68.5261,11.5645 L68.5261,8.4733 L66.1293,8.4733 L66.1293,23.4624 L68.5261,23.4624 L68.5261,15.8184 C68.5261,14.0796 68.9006,12.7216 69.6538,11.7374 C70.3181,10.8603 71.1371,10.4228 72.1108,10.4228 C72.913,10.4228 73.5206,10.5803 73.9434,10.9044 L73.9434,8.4159 C73.6186,8.2808 73.144,8.2129 72.507,8.2129 C71.6579,8.2129 70.8907,8.4859 70.2096,9.0312" id="Fill-17"></path>
                <polyline id="Fill-18" points="20.8162 5.3002 20.8687 5.3002 28.6653 23.4624 29.8665 23.4624 37.6519 5.3002 37.7086 5.3002 37.5028 23.4624 39.964 23.4624 39.964 2.475 36.8819 2.475 29.3002 19.6229 29.1973 19.6229 21.806 2.475 18.5573 2.475 18.5573 23.4624 20.9303 23.4624 20.8162 5.3002"></polyline>
                <polyline id="Fill-19" points="56.4553 76.8542 26.9118 30.3784 18.5412 30.3784 18.5412 85.4068 24.9917 85.4068 24.9917 38.2065 55.0399 85.4068 62.8645 85.4068 62.8645 30.3784 56.4553 30.3784 56.4553 76.8542"></polyline>
            </g>
        </g>
    </g>
</svg>